<svg width="32" height="32" viewBox="0 0 32 32" fill="none" xmlns="http://www.w3.org/2000/svg">
<path d="M6.39209 11.9155C5.96143 11.9155 5.62305 11.5771 5.62305 11.1465C5.62305 10.7158 5.96143 10.3672 6.39209 10.3672H25.5874C26.0181 10.3672 26.3667 10.7158 26.3667 11.1465C26.3667 11.5771 26.0181 11.9155 25.5874 11.9155H6.39209ZM6.39209 16.3862C5.96143 16.3862 5.62305 16.0479 5.62305 15.6172C5.62305 15.1763 5.96143 14.8276 6.39209 14.8276H25.5874C26.0181 14.8276 26.3667 15.1763 26.3667 15.6172C26.3667 16.0479 26.0181 16.3862 25.5874 16.3862H6.39209ZM6.39209 20.8672C5.96143 20.8672 5.62305 20.5186 5.62305 20.0776C5.62305 19.647 5.96143 19.3086 6.39209 19.3086H25.5874C26.0181 19.3086 26.3667 19.647 26.3667 20.0776C26.3667 20.5186 26.0181 20.8672 25.5874 20.8672H6.39209Z" fill="#FFE1CC"/>
</svg>
