<svg width="32" height="32" viewBox="0 0 32 32" fill="none" xmlns="http://www.w3.org/2000/svg">
<path d="M16 26.0146C10.2886 26.0146 5.54102 21.2671 5.54102 15.5557C5.54102 9.83398 10.2783 5.09668 15.9897 5.09668C21.7114 5.09668 26.459 9.83398 26.459 15.5557C26.459 21.2671 21.7217 26.0146 16 26.0146ZM16 24.2715C20.8398 24.2715 24.7158 20.3955 24.7158 15.5557C24.7158 10.7158 20.8296 6.83984 15.9897 6.83984C11.1499 6.83984 7.29443 10.7158 7.29443 15.5557C7.29443 20.3955 11.1602 24.2715 16 24.2715ZM13.9697 21.4209C13.0571 21.4209 12.4419 20.8364 12.4419 19.9546V11.1465C12.4419 10.2646 13.0571 9.68018 13.9697 9.68018H18.0303C18.9429 9.68018 19.5581 10.2646 19.5581 11.1465V19.9546C19.5581 20.8364 18.9429 21.4209 18.0303 21.4209H13.9697ZM14.0825 20.5083H17.9175C18.3892 20.5083 18.6455 20.2622 18.6455 19.8213V11.2798C18.6455 10.8389 18.3892 10.5928 17.9175 10.5928H14.0825C13.6108 10.5928 13.3545 10.8389 13.3545 11.2798V19.8213C13.3545 20.2622 13.6108 20.5083 14.0825 20.5083ZM15.313 11.8335C15.0874 11.8335 14.9233 11.6489 14.9233 11.4336C14.9233 11.2183 15.0874 11.0337 15.313 11.0337H16.6665C16.8921 11.0337 17.0664 11.2183 17.0664 11.4336C17.0664 11.6489 16.8921 11.8335 16.6665 11.8335H15.313ZM10.022 18.6011C9.88867 18.7856 9.62207 18.7856 9.42725 18.5908C8.67871 17.7705 8.27881 16.6938 8.27881 15.5557C8.27881 14.4072 8.67871 13.3306 9.42725 12.5205C9.62207 12.3257 9.88867 12.3257 10.022 12.5103C10.1655 12.6743 10.1245 12.8896 9.96045 13.0845C9.35547 13.7612 9.0376 14.6226 9.0376 15.5557C9.0376 16.4888 9.35547 17.3501 9.96045 18.0269C10.1245 18.2217 10.1655 18.4268 10.022 18.6011ZM21.9473 18.6011C21.8037 18.4268 21.8447 18.2217 22.019 18.0269C22.6138 17.3501 22.9419 16.4888 22.9419 15.5557C22.9419 14.6226 22.6138 13.7612 22.019 13.0845C21.8447 12.8896 21.8037 12.6743 21.9473 12.5103C22.0908 12.3257 22.3574 12.3257 22.542 12.5205C23.2905 13.3306 23.7007 14.4072 23.7007 15.5557C23.7007 16.6938 23.2905 17.7705 22.542 18.5908C22.3574 18.7856 22.0908 18.7856 21.9473 18.6011ZM11.4985 17.3398C11.3447 17.5244 11.0679 17.5142 10.8936 17.3091C10.5039 16.8271 10.2783 16.2119 10.2783 15.5557C10.2783 14.8892 10.5039 14.2842 10.8936 13.792C11.0679 13.5869 11.3447 13.5869 11.4985 13.7715C11.6421 13.9458 11.5908 14.1406 11.437 14.3457C11.1807 14.6636 11.0576 15.0942 11.0576 15.5557C11.0576 16.0171 11.1807 16.4375 11.437 16.7656C11.5908 16.9707 11.6421 17.1655 11.4985 17.3398ZM20.4707 17.3398C20.3271 17.1655 20.3784 16.9707 20.5322 16.7656C20.7886 16.4375 20.9219 16.0171 20.9219 15.5557C20.9219 15.0942 20.7886 14.6636 20.5322 14.3457C20.3784 14.1406 20.3271 13.9458 20.4707 13.7715C20.6245 13.5869 20.9116 13.5869 21.0757 13.792C21.4653 14.2842 21.7012 14.8892 21.7012 15.5557C21.7012 16.2119 21.4653 16.8271 21.0757 17.3091C20.9116 17.5142 20.6245 17.5244 20.4707 17.3398ZM14.8413 20.1187C14.6772 20.1187 14.5645 20.0059 14.5645 19.8521C14.5645 19.6777 14.6772 19.5649 14.8413 19.5649H17.1689C17.333 19.5649 17.4355 19.6777 17.4355 19.8521C17.4355 20.0059 17.333 20.1187 17.1689 20.1187H14.8413Z" fill="#FFE1CC"/>
</svg>
