<svg width="32" height="32" viewBox="0 0 32 32" fill="none" xmlns="http://www.w3.org/2000/svg">
<path d="M16 14.0894C15.6411 14.0894 15.3335 14.2944 15.1694 14.6738L14.0518 17.1245C12.8315 19.8008 10.5859 20.939 8.11475 20.939C4.49512 20.939 1.95215 18.7139 1.37793 14.7969L1.18311 13.5254C0.978027 12.1411 0.147461 11.7002 0.147461 11.1055C0.147461 10.5825 0.537109 10.2544 1.24463 10.2544C4.46436 10.2544 7.39697 10.4185 9.14014 10.6748C12.8008 11.2183 14.2363 12.1514 16 12.1514C17.7534 12.1514 19.189 11.2183 22.8496 10.6748C24.5928 10.4185 27.5254 10.2544 30.7554 10.2544C31.4629 10.2544 31.8423 10.5825 31.8423 11.1055C31.8423 11.7002 31.022 12.1411 30.8169 13.5254L30.6221 14.7969C30.0376 18.7139 27.4946 20.939 23.8853 20.939C21.4141 20.939 19.1685 19.8008 17.938 17.1245L16.8306 14.6738C16.6562 14.2944 16.3486 14.0894 16 14.0894Z" fill="#FFE1CC"/>
</svg>
