<svg width="32" height="32" viewBox="0 0 32 32" fill="none" xmlns="http://www.w3.org/2000/svg">
<path d="M11.2729 2.56396C14.103 2.56396 16.3896 4.86084 16.3896 7.69092C16.3896 7.82422 16.3896 7.9165 16.3794 7.98828C16.3486 8.34717 16.0205 8.57275 15.7026 8.57275C15.3745 8.57275 15.0566 8.36768 15.0464 7.90625V7.69092C15.0464 5.59912 13.3647 3.90723 11.2729 3.90723C9.18115 3.90723 7.48926 5.59912 7.48926 7.69092C7.48926 8.61377 7.80713 9.45459 8.36084 10.1108C8.7915 10.6235 8.36084 11.2183 7.8584 11.2183C7.66357 11.2183 7.4585 11.1362 7.28418 10.9209C6.57666 10.0391 6.146 8.91113 6.146 7.69092C6.146 4.86084 8.44287 2.56396 11.2729 2.56396ZM21.2397 24.6611C18.1636 25.7788 14.9849 25.1226 12.2368 21.6772L8.97607 17.5859C8.87354 17.4526 8.76074 17.2886 8.67871 17.0732C8.48389 16.5195 8.74023 15.9146 9.39648 15.6787C9.82715 15.5146 10.2373 15.6172 10.627 16.0273L13.2622 18.8574C13.4673 19.083 13.6416 19.1343 13.8057 19.0728C13.9697 19.0112 14.0825 18.8164 13.9902 18.5498L10.0938 7.84473C9.8374 7.12695 10.1143 6.50146 10.7603 6.26562C11.3652 6.05029 12.001 6.3374 12.2573 7.05518L14.9131 14.3662C15.0566 14.7559 15.3232 14.8789 15.5796 14.7866C15.8052 14.6943 15.9385 14.438 15.7949 14.0483L14.9951 11.8643C14.8823 11.5464 15.0156 11.3003 15.3848 11.167C16.2256 10.8594 17.0664 11.1465 17.4766 12.2744L17.8457 13.2998C17.9893 13.6895 18.2559 13.8125 18.5122 13.7202C18.7378 13.6279 18.8608 13.3716 18.7275 12.9819L18.3174 11.8643C18.1943 11.5361 18.3174 11.3105 18.707 11.167C19.5684 10.8491 20.4399 11.2695 20.8091 12.2744L21.0039 12.8076C21.1475 13.1973 21.4141 13.3101 21.6602 13.228C21.896 13.1357 22.019 12.8794 21.8755 12.4897L21.5781 11.6694C21.5063 11.4746 21.5781 11.3208 21.7935 11.2388C22.7163 10.9106 23.8955 11.6489 24.521 13.3408L25.1875 15.1865C26.8179 19.6675 25.4233 23.1436 21.2397 24.6611Z" fill="white" fill-opacity="0.4"/>
</svg>
