<svg width="32" height="32" viewBox="0 0 32 32" fill="none" xmlns="http://www.w3.org/2000/svg">
<path d="M8.97607 25.5635C8.55566 25.2456 8.46338 24.7227 8.71973 23.9741L10.8628 17.5962L5.38721 13.6587C4.75146 13.2075 4.48486 12.7358 4.65918 12.2231C4.82324 11.731 5.30518 11.4849 6.09473 11.4951L12.811 11.5361L14.8516 5.12744C15.0977 4.36865 15.4668 3.98926 15.9897 3.98926C16.5229 3.98926 16.8921 4.36865 17.1382 5.12744L19.1787 11.5361L25.895 11.4951C26.6846 11.4849 27.1665 11.731 27.3306 12.2231C27.4946 12.7358 27.2383 13.2075 26.6025 13.6587L21.127 17.5962L23.27 23.9741C23.5264 24.7227 23.4341 25.2456 23.0137 25.5635C22.583 25.8916 22.0601 25.7788 21.4243 25.3174L15.9897 21.3286L10.5654 25.3174C9.92969 25.7788 9.39648 25.8916 8.97607 25.5635ZM10.4526 23.5332C10.4731 23.564 10.5039 23.5435 10.5449 23.5127L15.4771 19.7495C15.8052 19.4932 16.1846 19.4932 16.5127 19.7495L21.4448 23.5127C21.4858 23.5435 21.5166 23.564 21.5371 23.5332C21.5576 23.5127 21.5474 23.5024 21.5371 23.4409L19.4966 17.5757C19.353 17.1758 19.4351 16.8579 19.7939 16.6118L24.9004 13.0845C24.9414 13.0537 24.9619 13.0332 24.9517 13.0024C24.9414 12.9717 24.9209 12.9717 24.8594 12.9717L18.6558 13.0845C18.2354 13.0947 17.9688 12.9204 17.8354 12.5L16.0513 6.56299C16.041 6.50146 16.0205 6.48096 15.9897 6.48096C15.9692 6.48096 15.9487 6.50146 15.9385 6.56299L14.1543 12.5C14.021 12.9204 13.7544 13.0947 13.334 13.0845L7.13037 12.9717C7.06885 12.9717 7.04834 12.9717 7.03809 13.0024C7.02783 13.0332 7.03809 13.0537 7.08936 13.0845L12.1958 16.6118C12.5547 16.8579 12.6367 17.1758 12.4932 17.5757L10.4526 23.4409C10.4424 23.5024 10.4321 23.5127 10.4526 23.5332Z" fill="white" fill-opacity="0.4"/>
</svg>
