<svg width="32" height="32" viewBox="0 0 32 32" fill="none" xmlns="http://www.w3.org/2000/svg">
<path d="M16 26.0557C10.2886 26.0557 5.54102 21.3081 5.54102 15.5967C5.54102 9.875 10.2783 5.1377 15.9897 5.1377C21.7114 5.1377 26.459 9.875 26.459 15.5967C26.459 21.3081 21.7217 26.0557 16 26.0557ZM10.6372 16.7041H15.9897C16.3896 16.7041 16.7075 16.3965 16.7075 15.9863V9.0752C16.7075 8.67529 16.3896 8.36768 15.9897 8.36768C15.5898 8.36768 15.2822 8.67529 15.2822 9.0752V15.2788H10.6372C10.2271 15.2788 9.91943 15.5864 9.91943 15.9863C9.91943 16.3965 10.2271 16.7041 10.6372 16.7041Z" fill="#F0E2C7"/>
</svg>
