<svg width="32" height="32" viewBox="0 0 32 32" fill="none" xmlns="http://www.w3.org/2000/svg">
<path d="M16 26.0557C10.2886 26.0557 5.54102 21.3081 5.54102 15.5967C5.54102 9.875 10.2783 5.1377 15.9897 5.1377C21.7114 5.1377 26.459 9.875 26.459 15.5967C26.459 21.3081 21.7217 26.0557 16 26.0557Z" fill="#D52534"/>
<path d="M16 26.0557C10.2886 26.0557 5.54102 21.3081 5.54102 15.5967C5.54102 9.875 10.2783 5.1377 15.9897 5.1377C21.7114 5.1377 26.459 9.875 26.459 15.5967C26.459 21.3081 21.7217 26.0557 16 26.0557ZM12.5547 19.9033C12.7905 19.9033 13.0059 19.8213 13.1699 19.6572L16 16.8066L18.8403 19.6572C18.9941 19.8213 19.2095 19.9033 19.4453 19.9033C19.9272 19.9033 20.3066 19.5239 20.3066 19.0522C20.3066 18.8164 20.2246 18.6011 20.0503 18.4473L17.21 15.6069L20.0605 12.7563C20.2451 12.5718 20.3169 12.3872 20.3169 12.1514C20.3169 11.6797 19.9375 11.3105 19.4658 11.3105C19.2402 11.3105 19.0557 11.3823 18.8813 11.5566L16 14.4175L13.1392 11.5669C12.9751 11.4131 12.7905 11.3311 12.5547 11.3311C12.083 11.3311 11.7139 11.6899 11.7139 12.1719C11.7139 12.3975 11.7959 12.6025 11.96 12.7666L14.8003 15.6069L11.96 18.4575C11.7959 18.6113 11.7139 18.8267 11.7139 19.0522C11.7139 19.5239 12.083 19.9033 12.5547 19.9033Z" fill="#111214"/>
</svg>
