<svg width="32" height="32" viewBox="0 0 32 32" fill="none" xmlns="http://www.w3.org/2000/svg">
<path d="M6.62793 25.0508C4.48486 25.0508 3.4082 23.9844 3.4082 21.8721V11.1362C3.4082 9.02393 4.48486 7.96777 6.62793 7.96777H9.48877C10.2886 7.96777 10.5449 7.79346 11.0063 7.29102L11.8267 6.36816C12.3394 5.8042 12.8623 5.49658 13.9185 5.49658H18.0098C19.0659 5.49658 19.5889 5.8042 20.1016 6.36816L20.9219 7.29102C21.3833 7.80371 21.6294 7.96777 22.4395 7.96777H25.3721C27.5049 7.96777 28.5918 9.02393 28.5918 11.1362V21.8721C28.5918 23.9844 27.5049 25.0508 25.3721 25.0508H6.62793ZM6.64844 23.3999H25.3413C26.3564 23.3999 26.9409 22.8564 26.9409 21.79V11.2285C26.9409 10.1621 26.3564 9.61865 25.3413 9.61865H22.0293C21.1064 9.61865 20.604 9.44434 20.0913 8.87012L19.2915 7.96777C18.707 7.31152 18.3994 7.14746 17.4971 7.14746H14.4312C13.5288 7.14746 13.2212 7.31152 12.6367 7.96777L11.8369 8.87012C11.3242 9.44434 10.8218 9.61865 9.89893 9.61865H6.64844C5.64355 9.61865 5.05908 10.1621 5.05908 11.2285V21.79C5.05908 22.8564 5.64355 23.3999 6.64844 23.3999ZM16 21.9233C12.8931 21.9233 10.4014 19.4419 10.4014 16.3145C10.4014 13.1973 12.8931 10.7158 16 10.7158C19.1069 10.7158 21.5884 13.1973 21.5884 16.3145C21.5884 19.4419 19.0967 21.9233 16 21.9233ZM22.0088 12.541C22.0088 11.8643 22.6035 11.2695 23.3008 11.2695C23.9878 11.2695 24.5723 11.8643 24.5723 12.541C24.5723 13.2485 23.9878 13.8228 23.3008 13.8228C22.6035 13.8228 22.0088 13.2588 22.0088 12.541ZM16 20.3647C18.2354 20.3647 20.04 18.5703 20.04 16.3145C20.04 14.0688 18.2354 12.2642 16 12.2642C13.7646 12.2642 11.9497 14.0688 11.9497 16.3145C11.9497 18.5703 13.7749 20.3647 16 20.3647Z" fill="#D52534"/>
</svg>
