<svg width="32" height="32" viewBox="0 0 32 32" fill="none" xmlns="http://www.w3.org/2000/svg">
<path d="M22.46 24.6611C19.3838 25.7788 16.2051 25.1226 13.457 21.6772L10.1963 17.5859C10.0938 17.4526 9.98096 17.2886 9.89893 17.0732C9.7041 16.5195 9.96045 15.9146 10.6167 15.6787C11.0474 15.5146 11.4473 15.6172 11.8472 16.0273L14.4824 18.8574C14.6875 19.083 14.8618 19.1343 15.0259 19.0728C15.1899 19.0112 15.3027 18.8164 15.2104 18.5498L11.314 7.84473C11.0576 7.12695 11.3345 6.50146 11.9805 6.26562C12.5854 6.05029 13.2212 6.3374 13.4775 7.05518L16.1333 14.3662C16.2769 14.7559 16.5435 14.8789 16.7998 14.7866C17.0254 14.6943 17.1587 14.438 17.0151 14.0483L16.2153 11.8643C16.1025 11.5464 16.2358 11.3003 16.605 11.167C17.4458 10.8594 18.2866 11.1465 18.6968 12.2744L19.0659 13.2998C19.2095 13.6895 19.4761 13.8125 19.7324 13.7202C19.958 13.6279 20.0913 13.3716 19.9478 12.9819L19.5376 11.8643C19.4146 11.5361 19.5376 11.3105 19.9272 11.167C20.7886 10.8491 21.6602 11.2695 22.0293 12.2744L22.2241 12.8076C22.3677 13.1973 22.6343 13.3101 22.8804 13.228C23.1162 13.1357 23.2393 12.8794 23.0957 12.4897L22.7983 11.6694C22.7266 11.4746 22.7983 11.3208 23.0137 11.2388C23.9365 10.9106 25.1157 11.6489 25.7412 13.3408L26.4077 15.1865C28.0381 19.6675 26.6436 23.1436 22.46 24.6611ZM9.92969 8.1626L10.3911 9.42383C7.87891 11.0542 6.2998 13.9458 6.20752 17.627C6.19727 17.9961 5.94092 18.2729 5.58203 18.2832C5.2334 18.2935 4.91553 17.9756 4.91553 17.6064C4.91553 13.4023 6.91504 9.98779 9.92969 8.1626Z" fill="white" fill-opacity="0.4"/>
</svg>
