<svg width="32" height="32" viewBox="0 0 32 32" fill="none" xmlns="http://www.w3.org/2000/svg">
<path d="M11.1089 23.9536C10.2168 23.9536 9.74512 23.4819 9.74512 22.5796V8.61377C9.74512 7.72168 10.2168 7.25 11.1089 7.25H13.4468C14.3389 7.25 14.8105 7.68066 14.8105 8.61377V22.5796C14.8105 23.4819 14.3389 23.9536 13.4468 23.9536H11.1089ZM18.5635 23.9536C17.6611 23.9536 17.1895 23.4819 17.1895 22.5796V8.61377C17.1895 7.72168 17.6611 7.25 18.5635 7.25H20.8911C21.7935 7.25 22.2549 7.68066 22.2549 8.61377V22.5796C22.2549 23.4819 21.7935 23.9536 20.8911 23.9536H18.5635Z" fill="white"/>
</svg>
