<svg width="22" height="22" viewBox="0 0 22 22" fill="none" xmlns="http://www.w3.org/2000/svg">
<path d="M11 21.0557C5.28857 21.0557 0.541016 16.3081 0.541016 10.5967C0.541016 4.875 5.27832 0.137695 10.9897 0.137695C16.7114 0.137695 21.459 4.875 21.459 10.5967C21.459 16.3081 16.7217 21.0557 11 21.0557ZM11 19.6611C15.9526 19.6611 20.0645 15.5493 20.0645 10.5967C20.0645 7.54102 18.4956 4.80322 16.1372 3.1626C15.4092 4.53662 13.3481 5.61328 12.3125 6.11572C12.5996 6.56689 12.7944 6.91553 12.7944 7.26416C12.7944 7.93066 12.4355 8.39209 11.769 8.39209C10.9692 8.39209 10.1797 7.55127 9.67725 7.55127C9.39014 7.55127 9.14404 7.71533 9.14404 8.00244C9.14404 8.50488 10.4565 9.65332 11.041 9.65332C11.6255 9.65332 12.4355 8.93555 12.938 8.93555C14.0967 8.93555 16.3115 10.8735 16.3115 11.8682C16.3115 13.6318 12.7227 18.3486 11.4102 18.3486C10.7642 18.3486 10.0361 17.7231 10.0361 17.1592C10.0361 16.5337 10.436 16.021 10.4258 15.3442C10.4258 14.9648 10.0259 14.7905 8.36475 13.5396C7.83154 13.1499 7.58545 12.709 7.58545 12.1963C7.58545 11.6323 8.07764 11.3247 8.07764 10.8838C8.07764 10.6172 7.80078 10.4224 7.3291 10.002L5.83203 8.69971C4.4375 7.48975 3.62744 6.34131 3.67871 5.29541C2.58154 6.79248 1.93555 8.62793 1.93555 10.5967C1.93555 15.5493 6.04736 19.6611 11 19.6611Z" fill="#F0E2C7"/>
</svg>
