<svg width="32" height="32" viewBox="0 0 32 32" fill="none" xmlns="http://www.w3.org/2000/svg">
<path d="M16 26.0557C10.2886 26.0557 5.54102 21.3081 5.54102 15.5967C5.54102 9.875 10.2783 5.1377 15.9897 5.1377C21.7114 5.1377 26.459 9.875 26.459 15.5967C26.459 21.3081 21.7217 26.0557 16 26.0557ZM16 24.6611C20.9526 24.6611 25.0645 20.5493 25.0645 15.5967C25.0645 12.541 23.4956 9.80322 21.1372 8.1626C20.4092 9.53662 18.3481 10.6133 17.3125 11.1157C17.5996 11.5669 17.7944 11.9155 17.7944 12.2642C17.7944 12.9307 17.4355 13.3921 16.769 13.3921C15.9692 13.3921 15.1797 12.5513 14.6772 12.5513C14.3901 12.5513 14.144 12.7153 14.144 13.0024C14.144 13.5049 15.4565 14.6533 16.041 14.6533C16.6255 14.6533 17.4355 13.9355 17.938 13.9355C19.0967 13.9355 21.3115 15.8735 21.3115 16.8682C21.3115 18.6318 17.7227 23.3486 16.4102 23.3486C15.7642 23.3486 15.0361 22.7231 15.0361 22.1592C15.0361 21.5337 15.436 21.021 15.4258 20.3442C15.4258 19.9648 15.0259 19.7905 13.3647 18.5396C12.8315 18.1499 12.5854 17.709 12.5854 17.1963C12.5854 16.6323 13.0776 16.3247 13.0776 15.8838C13.0776 15.6172 12.8008 15.4224 12.3291 15.002L10.832 13.6997C9.4375 12.4897 8.62744 11.3413 8.67871 10.2954C7.58154 11.7925 6.93555 13.6279 6.93555 15.5967C6.93555 20.5493 11.0474 24.6611 16 24.6611Z" fill="#FFE1CC"/>
</svg>
