<svg width="32" height="32" viewBox="0 0 32 32" fill="none" xmlns="http://www.w3.org/2000/svg">
<path d="M16 8.43945C14.7695 8.43945 13.7852 7.46533 13.7852 6.23486C13.7852 5.00439 14.7695 4.02002 16 4.02002C17.2305 4.02002 18.2148 5.00439 18.2148 6.23486C18.2148 7.46533 17.2305 8.43945 16 8.43945ZM16 18.3652C15.5796 18.3652 15.4155 18.6523 15.1797 19.3906C14.8311 20.4263 13.7954 24.7227 13.4468 25.9839C13.2725 26.6196 12.9443 26.8862 12.4624 26.8862C11.8062 26.8862 11.4062 26.2915 11.5908 25.6455C11.6626 25.3687 13.1494 19.1548 13.3545 17.873C13.5288 16.7451 13.5801 14.479 13.5801 13.4023C13.5801 13.228 13.3853 13.1768 13.293 13.3101C12.5239 14.397 11.1089 16.3965 10.832 16.7246C10.5347 17.0732 10.0425 17.1348 9.64258 16.9092C9.10938 16.6323 8.99658 16.0684 9.21191 15.6787C9.29395 15.5249 9.40674 15.3711 9.50928 15.2173L12.165 11.3105C13.0059 10.0698 14.0518 9.51611 16 9.51611C17.9482 9.51611 18.9941 10.0698 19.835 11.3105L22.4907 15.2173C22.5933 15.3711 22.7061 15.5249 22.7881 15.6787C23.0034 16.0684 22.8804 16.6323 22.3574 16.9092C21.9575 17.1348 21.4653 17.0732 21.1577 16.7246C20.8809 16.3965 19.4761 14.3867 18.707 13.3101C18.6045 13.1665 18.4199 13.228 18.4199 13.3921C18.4199 14.4688 18.4609 16.7451 18.6353 17.873C18.8506 19.1548 20.3374 25.3687 20.4092 25.6455C20.5938 26.2915 20.1938 26.8862 19.5376 26.8862C19.0557 26.8862 18.7275 26.6196 18.5532 25.9839C18.2046 24.7227 17.1689 20.4263 16.8203 19.3906C16.5845 18.6523 16.4204 18.3652 16 18.3652Z" fill="#FFE1CC"/>
</svg>
