<svg width="32" height="32" viewBox="0 0 32 32" fill="none" xmlns="http://www.w3.org/2000/svg">
<path d="M6.93555 16.335C6.93555 11.3105 10.9756 7.28076 16 7.28076C16.6255 7.28076 17.2305 7.35254 17.7637 7.45508L15.0361 4.7583C14.8926 4.59424 14.8105 4.38916 14.8105 4.17383C14.8105 3.70215 15.1592 3.33301 15.6206 3.33301C15.8667 3.33301 16.0718 3.41504 16.2153 3.5791L20.4399 7.86523C20.604 8.0293 20.6963 8.25488 20.6963 8.48047C20.6963 8.71631 20.6245 8.92139 20.4399 9.0957L16.2153 13.3408C16.0718 13.4946 15.877 13.5767 15.6206 13.5767C15.1592 13.5767 14.8105 13.228 14.8105 12.7563C14.8105 12.541 14.8926 12.3359 15.0464 12.1719L18.1123 9.13672C17.5073 8.99316 16.7793 8.93164 16 8.93164C11.8882 8.93164 8.58643 12.2231 8.58643 16.335C8.58643 20.457 11.8882 23.7588 16 23.7588C20.1118 23.7588 23.4033 20.457 23.4033 16.335C23.4033 15.8428 23.7212 15.4839 24.2031 15.4839C24.7056 15.4839 25.0542 15.8428 25.0542 16.335C25.0542 21.3696 21.0244 25.4097 16 25.4097C10.9756 25.4097 6.93555 21.3696 6.93555 16.335Z" fill="#AA1C28"/>
</svg>
