<svg width="32" height="32" viewBox="0 0 32 32" fill="none" xmlns="http://www.w3.org/2000/svg">
<path d="M16 26.0557C10.2886 26.0557 5.54102 21.3081 5.54102 15.5967C5.54102 9.875 10.2783 5.1377 15.9897 5.1377C21.7114 5.1377 26.459 9.875 26.459 15.5967C26.459 21.3081 21.7217 26.0557 16 26.0557ZM16 24.3125C20.8398 24.3125 24.7158 20.4365 24.7158 15.5967C24.7158 10.7568 20.8296 6.88086 15.9897 6.88086C11.1499 6.88086 7.29443 10.7568 7.29443 15.5967C7.29443 20.4365 11.1602 24.3125 16 24.3125ZM10.6372 16.7041C10.2271 16.7041 9.91943 16.3965 9.91943 15.9863C9.91943 15.5864 10.2271 15.2788 10.6372 15.2788H15.2822V9.0752C15.2822 8.67529 15.5898 8.36768 15.9897 8.36768C16.3896 8.36768 16.7075 8.67529 16.7075 9.0752V15.9863C16.7075 16.3965 16.3896 16.7041 15.9897 16.7041H10.6372Z" fill="#FFE1CC"/>
</svg>
