<svg width="32" height="32" viewBox="0 0 32 32" fill="none" xmlns="http://www.w3.org/2000/svg">
<path d="M11.0063 26.8657C10.2886 26.8657 9.88867 26.353 9.88867 25.5635V22.8975H9.39648C6.34082 22.8975 4.7002 21.2158 4.7002 18.2012V10.3467C4.7002 7.33203 6.34082 5.65039 9.39648 5.65039H22.6035C25.6592 5.65039 27.2998 7.34229 27.2998 10.3467V18.2012C27.2998 21.2056 25.6592 22.8975 22.6035 22.8975H16.0205L12.4829 26.0454C11.8574 26.5991 11.5088 26.8657 11.0063 26.8657ZM11.4268 24.9893L14.708 21.7285C15.0977 21.3286 15.3848 21.2466 15.959 21.2466H22.6035C24.6646 21.2466 25.6489 20.1904 25.6489 18.1909V10.3467C25.6489 8.34717 24.6646 7.30127 22.6035 7.30127H9.39648C7.3252 7.30127 6.35107 8.34717 6.35107 10.3467V18.1909C6.35107 20.1904 7.3252 21.2466 9.39648 21.2466H10.6577C11.2114 21.2466 11.4268 21.4619 11.4268 22.0156V24.9893ZM15.9282 10.9927C15.2412 10.9927 14.6875 10.439 14.6875 9.75195C14.6875 9.05469 15.2412 8.51123 15.9282 8.51123C16.6255 8.51123 17.1689 9.05469 17.1689 9.75195C17.1689 10.439 16.6255 10.9927 15.9282 10.9927ZM14.3491 19.5957C13.9595 19.5957 13.6621 19.3188 13.6621 18.9292C13.6621 18.5498 13.9595 18.2627 14.3491 18.2627H15.5283V13.9048H14.5132C14.1235 13.9048 13.8159 13.6279 13.8159 13.2383C13.8159 12.8691 14.1235 12.5718 14.5132 12.5718H16.2974C16.7793 12.5718 17.0356 12.9102 17.0356 13.4229V18.2627H18.2148C18.6045 18.2627 18.9121 18.5498 18.9121 18.9292C18.9121 19.3188 18.6045 19.5957 18.2148 19.5957H14.3491Z" fill="#FFE1CC"/>
</svg>
