<svg width="32" height="32" viewBox="0 0 32 32" fill="none" xmlns="http://www.w3.org/2000/svg">
<path d="M7.13037 25.0405C4.9873 25.0405 3.91064 23.9844 3.91064 21.8721V9.3418C3.91064 7.22949 4.9873 6.16309 7.13037 6.16309H24.8696C27.0229 6.16309 28.0894 7.22949 28.0894 9.3418V21.8721C28.0894 23.9844 27.0229 25.0405 24.8696 25.0405H7.13037ZM20.9424 15.5967L26.4385 20.7544V9.43408C26.4385 8.36768 25.8643 7.81396 24.8491 7.81396H7.15088C6.12549 7.81396 5.56152 8.36768 5.56152 9.43408V20.7544L8.61719 17.9961C9.0376 17.6064 9.47852 17.4219 9.93994 17.4219C10.4219 17.4219 10.8936 17.6167 11.3242 18.0063L13.2212 19.7188L17.856 15.5762C18.3276 15.1558 18.8301 14.9609 19.394 14.9609C19.9478 14.9609 20.4912 15.1763 20.9424 15.5967ZM11.5498 15.6992C10.2168 15.6992 9.12988 14.6123 9.12988 13.2793C9.12988 11.9565 10.2168 10.8594 11.5498 10.8594C12.8726 10.8594 13.9595 11.9565 13.9595 13.2793C13.9595 14.6123 12.8726 15.6992 11.5498 15.6992Z" fill="white" fill-opacity="0.4"/>
</svg>
