<svg width="32" height="32" viewBox="0 0 32 32" fill="none" xmlns="http://www.w3.org/2000/svg">
<path d="M13.8467 24.6509C13.4058 24.6509 13.0879 24.4561 12.7803 24.0562L7.4585 17.2783C7.26367 17.0322 7.16113 16.7656 7.16113 16.5298C7.16113 15.9658 7.56104 15.5659 8.14551 15.5659C8.51465 15.5659 8.771 15.7095 9.02734 16.0684L13.8057 22.3232L23.0137 7.6499C23.2598 7.26025 23.4854 7.12695 23.8955 7.12695C24.4595 7.12695 24.8286 7.49609 24.8286 8.06006C24.8286 8.2959 24.7568 8.52148 24.5723 8.81885L14.8823 24.0767C14.6362 24.4561 14.2876 24.6509 13.8467 24.6509Z" fill="#D52534"/>
</svg>
