<svg width="32" height="32" viewBox="0 0 32 32" fill="none" xmlns="http://www.w3.org/2000/svg">
<path d="M15.9897 18.3857C15.5488 18.3857 15.1797 18.0166 15.1797 17.5859V7.05518L15.2412 5.51709L14.5439 6.24512L12.9956 7.90625C12.8521 8.07031 12.6265 8.15234 12.4316 8.15234C12.001 8.15234 11.6934 7.84473 11.6934 7.42432C11.6934 7.20898 11.7754 7.04492 11.9292 6.89111L15.395 3.54834C15.6104 3.34326 15.7847 3.27148 15.9897 3.27148C16.2051 3.27148 16.3794 3.34326 16.5845 3.54834L20.0503 6.89111C20.2041 7.04492 20.2964 7.20898 20.2964 7.42432C20.2964 7.84473 19.9683 8.15234 19.5479 8.15234C19.3428 8.15234 19.1377 8.07031 18.9941 7.90625L17.4355 6.24512L16.7485 5.51709L16.8101 7.05518V17.5859C16.8101 18.0166 16.4307 18.3857 15.9897 18.3857ZM10.1143 26.4146C7.97119 26.4146 6.89453 25.3481 6.89453 23.2358V13.0024C6.89453 10.8901 7.97119 9.82373 10.1143 9.82373H13.2007V11.4746H10.1348C9.10938 11.4746 8.54541 12.0283 8.54541 13.0947V23.1436C8.54541 24.21 9.10938 24.7637 10.1348 24.7637H21.8447C22.8599 24.7637 23.4443 24.21 23.4443 23.1436V13.0947C23.4443 12.0283 22.8599 11.4746 21.8447 11.4746H18.7891V9.82373H21.8755C24.0186 9.82373 25.0952 10.8901 25.0952 13.0024V23.2358C25.0952 25.3481 24.0186 26.4146 21.8755 26.4146H10.1143Z" fill="#FFE1CC"/>
</svg>
