<svg width="32" height="32" viewBox="0 0 32 32" fill="none" xmlns="http://www.w3.org/2000/svg">
<path d="M7.89941 24.4458C5.75635 24.4458 4.67969 23.3896 4.67969 21.2671V9.94678C4.67969 7.83447 5.74609 6.77832 7.5918 6.77832H24.1006C26.2437 6.77832 27.3203 7.84473 27.3203 9.94678V21.2671C27.3203 23.3794 26.2539 24.4458 24.4082 24.4458H7.89941ZM14.7798 16.1299C15.2104 16.5605 15.6104 16.7656 16.0205 16.7656C16.4204 16.7656 16.8203 16.5708 17.2612 16.1299L24.9824 8.50098C24.7568 8.39844 24.48 8.34717 24.1621 8.34717H7.83789C7.53027 8.34717 7.26367 8.39844 7.03809 8.49072L14.7798 16.1299ZM6.24854 21.2671C6.24854 21.3286 6.24854 21.3901 6.25879 21.4414L12.1445 15.6274L6.24854 9.83398C6.24854 9.90576 6.24854 9.86475 6.24854 9.94678V21.2671ZM25.7515 9.95703C25.7515 9.95703 25.7515 9.95703 25.7515 9.86475L19.8965 15.6274L25.7515 21.4106C25.7515 21.3696 25.7515 21.3184 25.7515 21.2773V9.95703ZM7.83789 22.877H24.1621C24.4595 22.877 24.7158 22.8359 24.9414 22.7334L18.8198 16.6836L18.1533 17.3398C17.4355 18.0474 16.7383 18.3447 16.0205 18.3447C15.2925 18.3447 14.6055 18.0474 13.8877 17.3398L13.2212 16.6836L7.08936 22.7437C7.30469 22.8359 7.55078 22.877 7.83789 22.877Z" fill="#FFE1CC"/>
</svg>
