<svg width="32" height="32" viewBox="0 0 32 32" fill="none" xmlns="http://www.w3.org/2000/svg">
<path d="M7.54053 15.5967C7.54053 15.0942 7.96094 14.6738 8.45312 14.6738H15.0874V8.0498C15.0874 7.55762 15.4976 7.13721 16 7.13721C16.5024 7.13721 16.9229 7.55762 16.9229 8.0498V14.6738H23.5469C24.0391 14.6738 24.4595 15.0942 24.4595 15.5967C24.4595 16.0991 24.0391 16.5093 23.5469 16.5093H16.9229V23.1436C16.9229 23.6357 16.5024 24.0562 16 24.0562C15.4976 24.0562 15.0874 23.6357 15.0874 23.1436V16.5093H8.45312C7.96094 16.5093 7.54053 16.0991 7.54053 15.5967Z" fill="#FFE1CC"/>
</svg>
