<svg width="32" height="32" viewBox="0 0 32 32" fill="none" xmlns="http://www.w3.org/2000/svg">
<path d="M9.68359 15.5967C9.68359 15.3403 9.77588 15.1045 9.9707 14.9199L18.1021 6.96289C18.2764 6.78857 18.502 6.69629 18.7686 6.69629C19.3018 6.69629 19.7119 7.09619 19.7119 7.62939C19.7119 7.88574 19.5991 8.12158 19.4351 8.2959L11.9702 15.5967L19.4351 22.8975C19.5991 23.0718 19.7119 23.2974 19.7119 23.564C19.7119 24.0972 19.3018 24.4971 18.7686 24.4971C18.502 24.4971 18.2764 24.4048 18.1021 24.2202L9.9707 16.2734C9.77588 16.0786 9.68359 15.853 9.68359 15.5967Z" fill="#FFE1CC"/>
</svg>
