<svg width="22" height="20" viewBox="0 0 22 20" fill="none" xmlns="http://www.w3.org/2000/svg">
<path d="M5.8833 10.5146C3.02246 10.5146 0.674316 8.1665 0.674316 5.29541C0.674316 2.44482 3.02246 0.0864258 5.8833 0.0864258C8.73389 0.0864258 11.0923 2.44482 11.0923 5.29541C11.0923 8.146 8.70312 10.5146 5.8833 10.5146ZM3.95557 8.33057C4.0376 8.33057 4.10938 8.32031 4.1709 8.2793L5.8833 7.03857L7.5957 8.2793C7.65723 8.33057 7.729 8.33057 7.80078 8.33057C7.98535 8.33057 8.14941 8.19727 8.14941 8.00244C8.14941 7.96143 8.12891 7.88965 8.11865 7.84863L7.4624 5.86963L9.1748 4.6084C9.26709 4.54688 9.35938 4.43408 9.35938 4.31104C9.35938 4.08545 9.20557 4.01367 9.00049 4.01367H6.87793L6.22168 1.99365C6.16016 1.79883 6.02686 1.7373 5.8833 1.7373C5.73975 1.7373 5.60645 1.79883 5.54492 1.99365L4.88867 4.01367H2.76611C2.56104 4.01367 2.39697 4.08545 2.39697 4.31104C2.39697 4.43408 2.48926 4.54688 2.58154 4.6084L4.29395 5.86963L3.6377 7.84863C3.62744 7.88965 3.61719 7.94092 3.61719 8.0332C3.61719 8.23828 3.78125 8.33057 3.95557 8.33057ZM13.5225 3.28564C13.0918 3.28564 12.7534 2.94727 12.7534 2.50635C12.7534 2.07568 13.0918 1.7373 13.5225 1.7373H20.5361C20.9668 1.7373 21.3257 2.07568 21.3257 2.50635C21.3257 2.94727 20.9668 3.28564 20.5361 3.28564H13.5225ZM13.5225 8.65869C13.0918 8.65869 12.7534 8.32031 12.7534 7.87939C12.7534 7.44873 13.0918 7.11035 13.5225 7.11035H20.5361C20.9668 7.11035 21.3257 7.44873 21.3257 7.87939C21.3257 8.32031 20.9668 8.65869 20.5361 8.65869H13.5225ZM1.43311 14.0317C1.00244 14.0317 0.664062 13.6831 0.664062 13.2524C0.664062 12.8218 1.00244 12.4834 1.43311 12.4834H20.5361C20.9668 12.4834 21.3257 12.8218 21.3257 13.2524C21.3257 13.6831 20.9668 14.0317 20.5361 14.0317H1.43311ZM1.43311 19.3945C1.00244 19.3945 0.664062 19.0562 0.664062 18.6255C0.664062 18.1948 1.00244 17.8462 1.43311 17.8462H20.5361C20.9668 17.8462 21.3257 18.1948 21.3257 18.6255C21.3257 19.0562 20.9668 19.3945 20.5361 19.3945H1.43311Z" fill="#F0E2C7"/>
</svg>
