<svg width="32" height="32" viewBox="0 0 32 32" fill="none" xmlns="http://www.w3.org/2000/svg">
<path d="M9.52979 5.55811C9.59131 4.68652 10.0835 4.23535 11.0269 4.23535H20.9629C21.9165 4.23535 22.4087 4.68652 22.4702 5.55811H9.52979ZM7.41748 8.39844C7.57129 7.46533 8.01221 6.95264 9.0376 6.95264H22.9624C23.9878 6.95264 24.4287 7.46533 24.5825 8.39844H7.41748ZM8.47363 26.9375C6.32031 26.9375 5.25391 25.8711 5.25391 23.7588V13.228C5.25391 11.1157 6.32031 10.0493 8.47363 10.0493H23.5161C25.6489 10.0493 26.7358 11.1157 26.7358 13.228V23.7588C26.7358 25.8711 25.6489 26.9375 23.5161 26.9375H8.47363ZM8.49414 25.2866H9.84766C10.709 23.1025 13.1187 21.5952 16 21.5952C18.8813 21.5952 21.2808 23.1025 22.1523 25.2866H23.4854C24.5005 25.2866 25.085 24.7329 25.085 23.6665V13.3203C25.085 12.2539 24.5005 11.7002 23.4854 11.7002H8.49414C7.46875 11.7002 6.90479 12.2539 6.90479 13.3203V23.6665C6.90479 24.7329 7.46875 25.2866 8.49414 25.2866ZM16 20.0366C14.2158 20.0161 12.8315 18.5498 12.8213 16.5605C12.811 14.6841 14.2158 13.146 16 13.146C17.7739 13.146 19.1787 14.6841 19.1787 16.5605C19.1787 18.5498 17.7739 20.0571 16 20.0366Z" fill="white" fill-opacity="0.4"/>
</svg>
