<svg width="28" height="21" viewBox="0 0 28 21" fill="none" xmlns="http://www.w3.org/2000/svg">
<path d="M4.89453 15.9238L3.44873 10.0688C3.39746 10.0791 3.34619 10.0791 3.29492 10.0791C1.95166 10.0791 0.844238 8.98193 0.844238 7.61816C0.844238 6.2749 1.94141 5.17773 3.29492 5.17773C4.64844 5.17773 5.73535 6.28516 5.73535 7.61816C5.73535 8.03857 5.64307 8.41797 5.4585 8.75635L8.53467 11.002C8.8833 11.248 9.08838 11.166 9.2627 10.8994L12.8311 5.51611C12.0723 5.10596 11.5493 4.2959 11.5493 3.36279C11.5493 2.01953 12.6362 0.922363 14 0.922363C15.3433 0.922363 16.4404 2.02979 16.4404 3.36279C16.4404 4.2959 15.9175 5.10596 15.1587 5.51611L18.6963 10.8687C18.8911 11.1455 19.127 11.2378 19.4756 10.9917L22.5312 8.7666C22.3569 8.42822 22.2544 8.03857 22.2544 7.61816C22.2544 6.28516 23.3516 5.17773 24.6948 5.17773C26.0483 5.17773 27.1455 6.2749 27.1455 7.61816C27.1455 8.98193 26.0381 10.0791 24.6948 10.0791C24.6436 10.0791 24.5923 10.0791 24.541 10.0688L23.1157 15.9238H4.89453ZM5.23291 17.3286H22.7671L22.4595 18.5591C22.0596 20.1792 21.2188 20.979 19.5166 20.979H8.47314C6.78125 20.979 5.93018 20.1587 5.54053 18.5591L5.23291 17.3286Z" fill="#F0E2C7"/>
</svg>
