<svg width="32" height="32" viewBox="0 0 32 32" fill="none" xmlns="http://www.w3.org/2000/svg">
<path d="M16 26.0557C10.2886 26.0557 5.54102 21.3081 5.54102 15.5967C5.54102 9.875 10.2783 5.1377 15.9897 5.1377C21.7114 5.1377 26.459 9.875 26.459 15.5967C26.459 21.3081 21.7217 26.0557 16 26.0557ZM16 24.3125C20.8398 24.3125 24.7158 20.4365 24.7158 15.5967C24.7158 10.7568 20.8296 6.88086 15.9897 6.88086C11.1499 6.88086 7.29443 10.7568 7.29443 15.5967C7.29443 20.4365 11.1602 24.3125 16 24.3125ZM15.9077 12.0488C15.1694 12.0488 14.5747 11.4541 14.5747 10.7056C14.5747 9.95703 15.1694 9.3623 15.9077 9.3623C16.6562 9.3623 17.2407 9.95703 17.2407 10.7056C17.2407 11.4541 16.6562 12.0488 15.9077 12.0488ZM14.2056 21.3389C13.7852 21.3389 13.457 21.0312 13.457 20.6108C13.457 20.2109 13.7852 19.8931 14.2056 19.8931H15.4771V15.1968H14.3799C13.9595 15.1968 13.6313 14.8892 13.6313 14.4688C13.6313 14.0688 13.9595 13.751 14.3799 13.751H16.3076C16.8306 13.751 17.1074 14.1201 17.1074 14.6738V19.8931H18.3789C18.7993 19.8931 19.1274 20.2109 19.1274 20.6108C19.1274 21.0312 18.7993 21.3389 18.3789 21.3389H14.2056Z" fill="#FFE1CC"/>
</svg>
