<svg width="32" height="32" viewBox="0 0 32 32" fill="none" xmlns="http://www.w3.org/2000/svg">
<path d="M5.5 14.4893C4.04395 14.4893 2.84424 13.2998 2.84424 11.8232C2.84424 10.3672 4.03369 9.17773 5.5 9.17773C6.95605 9.17773 8.14551 10.3774 8.14551 11.8232C8.14551 12.1616 8.08398 12.4795 7.98145 12.7769L10.5347 14.3457C10.8833 14.561 11.0781 14.5098 11.2627 14.2432L14.5747 9.80322C13.8364 9.33154 13.3442 8.51123 13.3442 7.56787C13.3442 6.11182 14.5234 4.92236 16 4.92236C17.4561 4.92236 18.6455 6.12207 18.6455 7.56787C18.6455 8.50098 18.1636 9.33154 17.4355 9.80322L20.6963 14.2021C20.9014 14.479 21.1064 14.5508 21.4756 14.3149L24.0083 12.7563C23.8955 12.4692 23.8442 12.1514 23.8442 11.8232C23.8442 10.3774 25.0337 9.17773 26.4897 9.17773C27.9561 9.17773 29.1455 10.3672 29.1455 11.8232C29.1455 13.2998 27.9458 14.4893 26.4897 14.4893C26.4692 14.4893 26.459 14.4893 26.4385 14.4893L24.4595 22.5591C24.0596 24.1689 23.2188 24.979 21.5166 24.979H10.4731C8.78125 24.979 7.93018 24.1689 7.54053 22.5591L5.55127 14.4893H5.5ZM16 8.62402C16.5845 8.62402 17.0459 8.14209 17.0459 7.56787C17.0459 7.00391 16.564 6.52197 16 6.52197C15.4258 6.52197 14.9438 6.9834 14.9438 7.56787C14.9438 8.14209 15.4258 8.62402 16 8.62402ZM9.9707 15.812L7.03809 14.0176L8.44287 19.7803H23.5469L24.9619 13.9971H24.9517L21.9473 15.8428C21.3525 16.2119 20.2759 16.2119 19.6196 15.3301L16 10.4697L12.3906 15.3198C11.7139 16.2324 10.627 16.2119 9.9707 15.812ZM5.5 12.8896C6.08447 12.8896 6.5459 12.4077 6.5459 11.8232C6.5459 11.2593 6.06396 10.7773 5.5 10.7773C4.92578 10.7773 4.44385 11.2388 4.44385 11.8232C4.44385 12.4077 4.92578 12.8896 5.5 12.8896ZM26.4897 12.8896C27.064 12.8896 27.5459 12.4077 27.5459 11.8232C27.5459 11.2388 27.064 10.7773 26.4897 10.7773C25.9258 10.7773 25.4438 11.2593 25.4438 11.8232C25.4438 12.4077 25.9053 12.8896 26.4897 12.8896ZM10.4629 23.4307H21.5371C22.3062 23.4307 22.7471 23.0923 22.9214 22.3643L23.1675 21.3286H8.82227L9.07861 22.3643C9.25293 23.0923 9.69385 23.4307 10.4629 23.4307Z" fill="#FFE1CC"/>
</svg>
