<svg width="32" height="32" viewBox="0 0 32 32" fill="none" xmlns="http://www.w3.org/2000/svg">
<path d="M15.0566 26.312C14.5234 26.312 14.1338 25.9941 14.0107 25.4712L13.4775 23.2153C13.0776 23.082 12.6982 22.9282 12.3496 22.7642L10.3809 23.9741C9.93994 24.251 9.42725 24.21 9.05811 23.8408L7.74561 22.5283C7.37646 22.1592 7.31494 21.626 7.62256 21.1851L8.82227 19.2266C8.6582 18.8677 8.50439 18.4985 8.3916 18.1294L6.11523 17.5859C5.59229 17.4731 5.28467 17.0835 5.28467 16.5503V14.6943C5.28467 14.1714 5.59229 13.7817 6.11523 13.6689L8.37109 13.1255C8.50439 12.7051 8.66846 12.3257 8.80176 12.0078L7.60205 10.0186C7.30469 9.57764 7.3457 9.0752 7.7251 8.70605L9.05811 7.3833C9.4375 7.02441 9.89893 6.97314 10.3501 7.22949L12.3394 8.45996C12.688 8.27539 13.0776 8.12158 13.4775 7.98828L14.0107 5.72217C14.1338 5.19922 14.5234 4.88135 15.0566 4.88135H16.9434C17.4766 4.88135 17.8662 5.19922 17.979 5.72217L18.5122 8.00879C18.9326 8.14209 19.312 8.2959 19.6401 8.47021L21.6499 7.22949C22.1011 6.97314 22.5522 7.03467 22.9316 7.3833L24.2749 8.70605C24.6543 9.0752 24.6851 9.57764 24.3979 10.0186L23.188 12.0078C23.3315 12.3257 23.4956 12.7051 23.6289 13.1255L25.8848 13.6689C26.4077 13.7817 26.7153 14.1714 26.7153 14.6943V16.5503C26.7153 17.0835 26.4077 17.4731 25.8848 17.5859L23.6084 18.1294C23.4956 18.4985 23.3418 18.8677 23.1675 19.2266L24.3774 21.1851C24.6748 21.626 24.6235 22.1592 24.2544 22.5283L22.9316 23.8408C22.5625 24.21 22.0601 24.251 21.6191 23.9741L19.6401 22.7642C19.3018 22.9282 18.9121 23.082 18.5122 23.2153L17.979 25.4712C17.8662 25.9941 17.4766 26.312 16.9434 26.312H15.0566ZM16 19.2163C17.9893 19.2163 19.6196 17.5757 19.6196 15.5864C19.6196 13.6074 17.9893 11.9771 16 11.9771C14.0107 11.9771 12.3804 13.6074 12.3804 15.5864C12.3804 17.5757 14.0107 19.2163 16 19.2163Z" fill="#F0E2C7"/>
</svg>
