<svg width="22" height="22" viewBox="0 0 22 22" fill="none" xmlns="http://www.w3.org/2000/svg">
<path d="M11 21.0659C5.28857 21.0659 0.541016 16.3286 0.541016 10.6069C0.541016 4.89551 5.27832 0.147949 10.9897 0.147949C16.7114 0.147949 21.459 4.89551 21.459 10.6069C21.459 16.3286 16.7217 21.0659 11 21.0659ZM8.91846 16.6567H13.1021C14.0454 16.6567 14.6812 16.0518 14.6812 15.1392V6.07471C14.6812 5.15186 14.0454 4.55713 13.1021 4.55713H8.91846C7.9751 4.55713 7.33936 5.15186 7.33936 6.07471V15.1392C7.33936 16.0518 7.9751 16.6567 8.91846 16.6567ZM9.03125 15.7134C8.54932 15.7134 8.28271 15.457 8.28271 15.0059V6.19775C8.28271 5.74658 8.54932 5.50049 9.03125 5.50049H12.9893C13.4712 5.50049 13.7378 5.74658 13.7378 6.19775V15.0059C13.7378 15.457 13.4712 15.7134 12.9893 15.7134H9.03125ZM10.3027 6.77197H11.6973C11.9331 6.77197 12.1074 6.5874 12.1074 6.36182C12.1074 6.13623 11.9331 5.95166 11.6973 5.95166H10.3027C10.0669 5.95166 9.90283 6.13623 9.90283 6.36182C9.90283 6.5874 10.0669 6.77197 10.3027 6.77197ZM17.1421 13.7446C17.2959 13.9395 17.5625 13.9395 17.7573 13.7344C18.5264 12.9038 18.9468 11.7861 18.9468 10.6069C18.9468 9.43799 18.5264 8.32031 17.7573 7.47949C17.5625 7.27441 17.2959 7.27441 17.1421 7.46924C16.9985 7.64355 17.0396 7.85889 17.2139 8.06396C17.8291 8.76123 18.1675 9.64307 18.1675 10.6069C18.1675 11.5708 17.8291 12.4526 17.2139 13.1499C17.0396 13.355 16.9985 13.5806 17.1421 13.7446ZM4.84766 13.7446C4.99121 13.5806 4.9502 13.355 4.78613 13.1499C4.16064 12.4526 3.83252 11.5708 3.83252 10.6069C3.83252 9.64307 4.16064 8.76123 4.78613 8.06396C4.9502 7.85889 4.99121 7.64355 4.84766 7.46924C4.7041 7.27441 4.4375 7.27441 4.23242 7.47949C3.46338 8.32031 3.05322 9.43799 3.05322 10.6069C3.05322 11.7861 3.46338 12.9038 4.23242 13.7344C4.4375 13.9395 4.7041 13.9395 4.84766 13.7446ZM6.37549 12.4424C6.51904 12.2681 6.46777 12.063 6.30371 11.8477C6.04736 11.5093 5.91406 11.0786 5.91406 10.6069C5.91406 10.1353 6.04736 9.69434 6.30371 9.36621C6.46777 9.15088 6.51904 8.9458 6.37549 8.77148C6.21143 8.57666 5.92432 8.58691 5.73975 8.80225C5.33984 9.29443 5.11426 9.93018 5.11426 10.6069C5.11426 11.2939 5.33984 11.9194 5.73975 12.4219C5.92432 12.6372 6.21143 12.6372 6.37549 12.4424ZM15.6143 12.4424C15.7783 12.6372 16.0757 12.6372 16.25 12.4219C16.6499 11.9194 16.8857 11.2939 16.8857 10.6069C16.8857 9.93018 16.6499 9.29443 16.25 8.80225C16.0757 8.58691 15.7783 8.57666 15.6143 8.77148C15.4707 8.9458 15.522 9.15088 15.686 9.36621C15.9424 9.69434 16.0859 10.1353 16.0859 10.6069C16.0859 11.0786 15.9424 11.5093 15.686 11.8477C15.522 12.063 15.4707 12.2681 15.6143 12.4424ZM9.8208 15.3135H12.2202C12.3843 15.3135 12.4868 15.1904 12.4868 15.0264C12.4868 14.8521 12.3843 14.7393 12.2202 14.7393H9.8208C9.64648 14.7393 9.53369 14.8521 9.53369 15.0264C9.53369 15.1904 9.64648 15.3135 9.8208 15.3135Z" fill="#F0E2C7"/>
</svg>
