<svg width="32" height="32" viewBox="0 0 32 32" fill="none" xmlns="http://www.w3.org/2000/svg">
<path d="M6.63818 19.77C5.25391 19.77 4.55664 19.0728 4.55664 17.5859V13.6587C4.55664 12.1719 5.24365 11.4644 6.63818 11.4644H9.58105C9.67334 11.4644 9.75537 11.4336 9.82715 11.3721L14.4517 7.27051C14.9849 6.78857 15.3027 6.56299 15.7949 6.56299C16.4717 6.56299 16.9741 7.10645 16.9741 7.77295V23.5024C16.9741 24.1689 16.4717 24.6509 15.8154 24.6509C15.3232 24.6509 14.9438 24.4458 14.4517 24.0049L9.82715 19.8623C9.75537 19.8008 9.67334 19.77 9.58105 19.77H6.63818ZM24.2339 22.6411C23.8545 22.3848 23.8032 21.9028 24.0903 21.4824C25.1875 19.8828 25.854 17.7808 25.854 15.5967C25.854 13.4126 25.208 11.29 24.0903 9.71094C23.793 9.29053 23.8545 8.80859 24.2339 8.55225C24.6133 8.2959 25.085 8.38818 25.3618 8.77783C26.6846 10.562 27.4434 13.064 27.4434 15.5967C27.4434 18.1294 26.6743 20.6108 25.3618 22.4155C25.085 22.8052 24.6133 22.8975 24.2339 22.6411ZM6.70996 18.2729H9.99121C10.2578 18.2729 10.4629 18.3345 10.6987 18.5396L15.0669 22.4873C15.1284 22.5386 15.1899 22.5693 15.2412 22.5693C15.313 22.5693 15.3745 22.5078 15.3745 22.4155V8.78809C15.3745 8.6958 15.313 8.64453 15.2412 8.64453C15.1694 8.64453 15.1182 8.67529 15.0669 8.72656L10.6987 12.6948C10.4629 12.9102 10.2578 12.9614 9.99121 12.9614H6.70996C6.33057 12.9614 6.15625 13.1357 6.15625 13.5254V17.7192C6.15625 18.0986 6.33057 18.2729 6.70996 18.2729ZM20.4399 19.9648C20.0195 19.6675 19.9683 19.1753 20.2759 18.7446C20.8604 17.9141 21.209 16.7861 21.209 15.5967C21.209 14.4072 20.8706 13.269 20.2759 12.4487C19.958 12.0283 20.0195 11.5156 20.4399 11.2285C20.7783 10.9824 21.2603 11.0645 21.5371 11.4644C22.3267 12.5103 22.7983 14.0278 22.7983 15.5967C22.7983 17.1655 22.3267 18.6934 21.5371 19.729C21.2603 20.1289 20.7783 20.2007 20.4399 19.9648Z" fill="#FFE1CC"/>
</svg>
