<svg width="32" height="32" viewBox="0 0 32 32" fill="none" xmlns="http://www.w3.org/2000/svg">
<path d="M16 26.0557C10.2886 26.0557 5.54102 21.3081 5.54102 15.5967C5.54102 9.875 10.2783 5.1377 15.9897 5.1377C21.7114 5.1377 26.459 9.875 26.459 15.5967C26.459 21.3081 21.7217 26.0557 16 26.0557ZM16 24.3125C20.8398 24.3125 24.7158 20.4365 24.7158 15.5967C24.7158 10.7568 20.8296 6.88086 15.9897 6.88086C11.1499 6.88086 7.29443 10.7568 7.29443 15.5967C7.29443 20.4365 11.1602 24.3125 16 24.3125ZM15.9897 15.2788C14.5337 15.2686 13.3545 14.0381 13.3545 12.3975C13.3545 10.8594 14.5337 9.58789 15.9897 9.58789C17.4458 9.58789 18.625 10.8594 18.625 12.3975C18.625 14.0381 17.4458 15.2891 15.9897 15.2788ZM11.3037 20.7954C10.8936 20.7954 10.6987 20.5186 10.6987 20.1494C10.6987 19.0215 12.3906 16.1094 15.9897 16.1094C19.5889 16.1094 21.2808 19.0215 21.2808 20.1494C21.2808 20.5186 21.0859 20.7954 20.6758 20.7954H11.3037Z" fill="white" fill-opacity="0.4"/>
</svg>
