<svg width="32" height="32" viewBox="0 0 32 32" fill="none" xmlns="http://www.w3.org/2000/svg">
<path d="M16 26.0557C10.2886 26.0557 5.54102 21.3081 5.54102 15.5967C5.54102 9.875 10.2783 5.1377 15.9897 5.1377C21.7114 5.1377 26.459 9.875 26.459 15.5967C26.459 21.3081 21.7217 26.0557 16 26.0557ZM9.86816 8.95215C10.3911 9.32129 11.0269 9.62891 11.7549 9.86475C12.2061 8.61377 12.811 7.59863 13.5186 6.88086C12.1445 7.28076 10.8936 7.99854 9.86816 8.95215ZM18.4917 6.89111C19.189 7.60889 19.7939 8.62402 20.2451 9.86475C20.9731 9.62891 21.6089 9.33154 22.1318 8.9624C21.0962 8.00879 19.8555 7.29102 18.4917 6.89111ZM13.0776 10.2031C13.7749 10.3262 14.5234 10.4082 15.3335 10.439V7.1167C14.4517 7.50635 13.6519 8.63428 13.0776 10.2031ZM16.6768 7.1167V10.439C17.4766 10.4082 18.2251 10.3262 18.9224 10.2031C18.3481 8.63428 17.5483 7.50635 16.6768 7.1167ZM6.95605 14.9199H10.832C10.8833 13.5459 11.0679 12.2642 11.3652 11.1157C10.4116 10.8081 9.59131 10.4082 8.95557 9.92627C7.82764 11.3208 7.09961 13.0537 6.95605 14.9199ZM21.168 14.9199H25.0439C24.9004 13.0537 24.1724 11.3208 23.0342 9.93652C22.4087 10.4082 21.5884 10.8081 20.6348 11.1157C20.9321 12.2642 21.1167 13.5459 21.168 14.9199ZM16.6768 14.9199H19.7939C19.7427 13.6895 19.5786 12.5205 19.312 11.4644C18.4814 11.6387 17.5996 11.7515 16.6768 11.7822V14.9199ZM12.2061 14.9199H15.3335V11.7822C14.4004 11.7515 13.5186 11.6387 12.688 11.4644C12.4316 12.5205 12.2573 13.6895 12.2061 14.9199ZM6.95605 16.2632C7.09961 18.1499 7.83789 19.8931 8.98633 21.2979C9.61182 20.8262 10.4219 20.4263 11.3652 20.1187C11.0679 18.96 10.8833 17.668 10.832 16.2632H6.95605ZM12.2061 16.2632C12.2471 17.5142 12.4316 18.7036 12.7085 19.77C13.5288 19.606 14.4106 19.4932 15.3335 19.4624V16.2632H12.2061ZM16.6768 19.4624C17.5894 19.4932 18.4814 19.606 19.2915 19.77C19.5684 18.7036 19.7529 17.5142 19.7939 16.2632H16.6768V19.4624ZM20.6348 20.1187C21.5781 20.4263 22.3882 20.8262 23.0137 21.2979C24.1621 19.8931 24.9004 18.1499 25.0439 16.2632H21.168C21.1167 17.668 20.9321 18.96 20.6348 20.1187ZM16.6768 20.8057V24.0869C17.5381 23.6973 18.3276 22.5693 18.9019 21.0415C18.2148 20.9082 17.4663 20.8364 16.6768 20.8057ZM13.0981 21.0415C13.6724 22.5693 14.4619 23.6973 15.3335 24.0869V20.8057C14.5337 20.8364 13.7852 20.9082 13.0981 21.0415ZM20.2349 21.3696C19.7837 22.5898 19.189 23.5947 18.502 24.3022C19.8555 23.9023 21.0757 23.1948 22.1011 22.2617C21.5781 21.9028 20.9526 21.6055 20.2349 21.3696ZM9.89893 22.2617C10.9243 23.1948 12.1548 23.9023 13.5083 24.3022C12.811 23.5947 12.2163 22.5898 11.7651 21.3696C11.0474 21.6055 10.4219 21.9028 9.89893 22.2617Z" fill="white"/>
</svg>
