<svg width="32" height="32" viewBox="0 0 32 32" fill="none" xmlns="http://www.w3.org/2000/svg">
<path d="M16.0205 16.7964C15.5898 16.7964 15.2002 16.5913 14.7593 16.1504L5.78711 7.28076C6.12549 6.94238 6.73047 6.77832 7.5918 6.77832H24.1006C25.1157 6.77832 25.8232 6.95264 26.2026 7.32178L17.2817 16.1504C16.8306 16.6016 16.4409 16.7964 16.0205 16.7964ZM4.93604 22.7949C4.76172 22.5078 4.67969 21.9951 4.67969 21.2671V9.94678C4.67969 9.23926 4.76172 8.74707 4.91553 8.45996L12.1855 15.6274L4.93604 22.7949ZM27.0742 22.7847L19.8452 15.6274L27.0947 8.49072C27.2383 8.76758 27.3203 9.25977 27.3203 9.94678V21.2671C27.3203 21.9849 27.2383 22.4873 27.0742 22.7847ZM7.89941 24.4458C6.91504 24.4458 6.23828 24.2817 5.84863 23.9434L13.2212 16.6323L13.9082 17.3193C14.6055 17.9961 15.272 18.3037 16.0205 18.3037C16.7588 18.3037 17.4253 17.9961 18.1328 17.3193L18.8096 16.6323L26.2026 23.9536C25.8643 24.2817 25.2695 24.4458 24.4082 24.4458H7.89941Z" fill="#F0E2C7"/>
</svg>
