<svg width="32" height="32" viewBox="0 0 32 32" fill="none" xmlns="http://www.w3.org/2000/svg">
<path d="M9.77588 25.0508C7.63281 25.0508 6.55615 23.9946 6.55615 21.8721V9.35205C6.55615 7.22949 7.63281 6.17334 9.77588 6.17334H22.2139C24.3672 6.17334 25.4336 7.23975 25.4336 9.35205V21.8721C25.4336 23.9844 24.3672 25.0508 22.2139 25.0508H9.77588ZM9.79639 23.3999H22.1934C23.2085 23.3999 23.7827 22.8564 23.7827 21.79V9.43408C23.7827 8.36768 23.2085 7.82422 22.1934 7.82422H9.79639C8.771 7.82422 8.20703 8.36768 8.20703 9.43408V21.79C8.20703 22.8564 8.771 23.3999 9.79639 23.3999ZM13.0571 20.8877C12.4624 21.3389 11.8267 20.8672 12.0625 20.1699L13.2212 16.6938L10.2476 14.5713C9.69385 14.1611 9.87842 13.3716 10.627 13.3818L14.2773 13.4126L15.395 9.91602C15.6104 9.23926 16.3896 9.23926 16.605 9.91602L17.7227 13.4126L21.373 13.3818C22.1318 13.3716 22.2959 14.1714 21.7524 14.5713L18.7788 16.6938L19.9478 20.1699C20.1733 20.8672 19.5479 21.3389 18.9429 20.8877L16 18.7241L13.0571 20.8877Z" fill="#FFE1CC"/>
</svg>
