<svg width="32" height="32" viewBox="0 0 32 32" fill="none" xmlns="http://www.w3.org/2000/svg">
<path d="M16 26.0557C10.2886 26.0557 5.54102 21.3081 5.54102 15.5967C5.54102 9.875 10.2783 5.1377 15.9897 5.1377C21.7114 5.1377 26.459 9.875 26.459 15.5967C26.459 21.3081 21.7217 26.0557 16 26.0557ZM16 24.3125C20.8398 24.3125 24.7158 20.4365 24.7158 15.5967C24.7158 10.7568 20.8296 6.88086 15.9897 6.88086C11.1499 6.88086 7.29443 10.7568 7.29443 15.5967C7.29443 20.4365 11.1602 24.3125 16 24.3125ZM15.9795 22.7539C12.001 22.7539 8.83252 19.5752 8.83252 15.5864C8.83252 11.6079 11.9907 8.4292 15.9692 8.4292C19.9478 8.4292 23.1265 11.6182 23.1367 15.5864C23.147 19.5649 19.9683 22.7539 15.9795 22.7539Z" fill="#D52534"/>
</svg>
