<svg width="32" height="32" viewBox="0 0 32 32" fill="none" xmlns="http://www.w3.org/2000/svg">
<path d="M5.92041 15.9761C5.41797 15.9761 5.04883 15.5967 5.04883 15.1045V14.0073C5.04883 11.2285 7.00732 9.51611 10.0117 9.51611H17.8457V7.13721C17.8457 6.7168 18.0918 6.49121 18.5122 6.49121C18.6968 6.49121 18.8916 6.55273 19.0352 6.67578L22.9111 9.89551C23.2598 10.1826 23.2393 10.603 22.9111 10.8696L19.0352 14.0791C18.8916 14.2021 18.6968 14.2739 18.5122 14.2739C18.0918 14.2739 17.8457 14.0381 17.8457 13.6279V11.2183H9.84766C7.9917 11.2183 6.79199 12.3667 6.79199 14.1304V15.1045C6.79199 15.5967 6.4126 15.9761 5.92041 15.9761ZM26.0693 15.248C26.5615 15.248 26.9409 15.6172 26.9409 16.1196V17.2168C26.9409 19.9956 24.9824 21.708 21.9678 21.708H14.1338V24.1074C14.1338 24.5176 13.8979 24.7534 13.4775 24.7534C13.2827 24.7534 13.0981 24.6816 12.9443 24.5586L9.06836 21.3389C8.72998 21.062 8.74023 20.6519 9.06836 20.3647L12.9443 17.1553C13.0981 17.0322 13.2827 16.9707 13.4775 16.9707C13.8979 16.9707 14.1338 17.1963 14.1338 17.6167V19.9956H22.1318C23.998 19.9956 25.1978 18.8574 25.1978 17.0938V16.1196C25.1978 15.6172 25.5669 15.248 26.0693 15.248Z" fill="#FFE1CC"/>
</svg>
