<svg width="32" height="32" viewBox="0 0 32 32" fill="none" xmlns="http://www.w3.org/2000/svg">
<path d="M22.3267 15.5967C22.3267 15.853 22.2241 16.0786 22.0293 16.2734L13.9082 24.2202C13.7236 24.4048 13.498 24.4971 13.2314 24.4971C12.7085 24.4971 12.2983 24.0972 12.2983 23.564C12.2983 23.2974 12.4009 23.0718 12.5649 22.8975L20.0298 15.5967L12.5649 8.2959C12.4009 8.12158 12.2983 7.88574 12.2983 7.62939C12.2983 7.09619 12.7085 6.69629 13.2314 6.69629C13.498 6.69629 13.7236 6.78857 13.9082 6.96289L22.0293 14.9199C22.2241 15.1045 22.3267 15.3403 22.3267 15.5967Z" fill="#DE7379"/>
</svg>
