<svg width="32" height="32" viewBox="0 0 32 32" fill="none" xmlns="http://www.w3.org/2000/svg">
<path d="M21.3525 15.3198C19.1479 15.3198 17.251 13.3511 17.251 10.8081C17.251 8.2959 19.1582 6.37842 21.3525 6.37842C23.5366 6.37842 25.4438 8.25488 25.4438 10.7876C25.4438 13.3511 23.5469 15.3198 21.3525 15.3198ZM9.54004 15.5557C7.63281 15.5557 5.97168 13.833 5.97168 11.6284C5.97168 9.43408 7.64307 7.77295 9.54004 7.77295C11.4473 7.77295 13.1084 9.39307 13.1084 11.6079C13.1084 13.833 11.4575 15.5557 9.54004 15.5557ZM3.82861 24.8149C2.52637 24.8149 2.02393 24.3022 2.02393 23.3691C2.02393 20.5391 4.91553 17.1245 9.54004 17.1245C11.4473 17.1245 12.9136 17.6885 14.062 18.4473C11.8472 20.1494 10.5449 23.2666 11.6113 24.8149H3.82861ZM14.9028 24.8149C13.293 24.8149 12.7188 24.3535 12.7188 23.4512C12.7188 20.8057 16.0308 17.1553 21.3423 17.1553C26.6641 17.1553 29.9761 20.8057 29.9761 23.4512C29.9761 24.3535 29.4019 24.8149 27.7817 24.8149H14.9028Z" fill="#F0E2C7"/>
</svg>
