<svg width="32" height="32" viewBox="0 0 32 32" fill="none" xmlns="http://www.w3.org/2000/svg">
<g filter="url(#filter0_b_264_15896)">
<path d="M16 26.0557C10.2886 26.0557 5.54102 21.3081 5.54102 15.5967C5.54102 9.875 10.2783 5.1377 15.9897 5.1377C21.7114 5.1377 26.459 9.875 26.459 15.5967C26.459 21.3081 21.7217 26.0557 16 26.0557Z" fill="#AA1C28"/>
</g>
<path d="M16 26.0557C10.2886 26.0557 5.54102 21.3081 5.54102 15.5967C5.54102 9.875 10.2783 5.1377 15.9897 5.1377C21.7114 5.1377 26.459 9.875 26.459 15.5967C26.459 21.3081 21.7217 26.0557 16 26.0557ZM16 24.3125C20.8398 24.3125 24.7158 20.4365 24.7158 15.5967C24.7158 10.7568 20.8296 6.88086 15.9897 6.88086C11.1499 6.88086 7.29443 10.7568 7.29443 15.5967C7.29443 20.4365 11.1602 24.3125 16 24.3125ZM14.8721 20.4673C14.5337 20.4673 14.2568 20.3237 14.0005 19.9854L11.4985 16.9092C11.355 16.7144 11.2627 16.499 11.2627 16.2734C11.2627 15.8223 11.6113 15.4634 12.0522 15.4634C12.3394 15.4634 12.5649 15.5454 12.811 15.8735L14.8311 18.4883L19.0864 11.6592C19.2812 11.3618 19.5376 11.1978 19.7939 11.1978C20.2246 11.1978 20.6348 11.4951 20.6348 11.9565C20.6348 12.1821 20.5015 12.4077 20.3887 12.6128L15.7026 19.9854C15.4976 20.3032 15.2104 20.4673 14.8721 20.4673Z" fill="white"/>
<defs>
<filter id="filter0_b_264_15896" x="-10.459" y="-10.8623" width="52.918" height="52.918" filterUnits="userSpaceOnUse" color-interpolation-filters="sRGB">
<feFlood flood-opacity="0" result="BackgroundImageFix"/>
<feGaussianBlur in="BackgroundImageFix" stdDeviation="8"/>
<feComposite in2="SourceAlpha" operator="in" result="effect1_backgroundBlur_264_15896"/>
<feBlend mode="normal" in="SourceGraphic" in2="effect1_backgroundBlur_264_15896" result="shape"/>
</filter>
</defs>
</svg>
