<svg width="22" height="23" viewBox="0 0 22 23" fill="none" xmlns="http://www.w3.org/2000/svg">
<path d="M4.52979 1.77344C4.59131 0.901855 5.0835 0.450684 6.02686 0.450684H15.9629C16.9165 0.450684 17.4087 0.901855 17.4702 1.77344H4.52979ZM2.41748 4.61377C2.57129 3.68066 3.01221 3.16797 4.0376 3.16797H17.9624C18.9878 3.16797 19.4287 3.68066 19.5825 4.61377H2.41748ZM3.57617 22.7427C1.49463 22.7427 0.458984 21.6968 0.458984 19.6562V9.34082C0.458984 7.30029 1.49463 6.26465 3.57617 6.26465H18.4136C20.4746 6.26465 21.5308 7.30029 21.5308 9.34082V19.6562C21.5308 21.6968 20.4746 22.7427 18.4136 22.7427H3.57617Z" fill="#F0E2C7"/>
</svg>
