<svg width="32" height="32" viewBox="0 0 32 32" fill="none" xmlns="http://www.w3.org/2000/svg">
<path d="M8.97607 25.5635C8.55566 25.2456 8.46338 24.7227 8.71973 23.9741L10.8628 17.5962L5.38721 13.6587C4.75146 13.2075 4.48486 12.7358 4.65918 12.2231C4.82324 11.731 5.30518 11.4849 6.09473 11.4951L12.811 11.5361L14.8516 5.12744C15.0977 4.36865 15.4668 3.98926 15.9897 3.98926C16.5229 3.98926 16.8921 4.36865 17.1382 5.12744L19.1787 11.5361L25.895 11.4951C26.6846 11.4849 27.1665 11.731 27.3306 12.2231C27.4946 12.7358 27.2383 13.2075 26.6025 13.6587L21.127 17.5962L23.27 23.9741C23.5264 24.7227 23.4341 25.2456 23.0137 25.5635C22.583 25.8916 22.0601 25.7788 21.4243 25.3174L15.9897 21.3286L10.5654 25.3174C9.92969 25.7788 9.39648 25.8916 8.97607 25.5635Z" fill="#FFE1CC"/>
</svg>
