<svg width="22" height="22" viewBox="0 0 22 22" fill="none" xmlns="http://www.w3.org/2000/svg">
<path d="M11 21.0557C5.28857 21.0557 0.541016 16.3081 0.541016 10.5967C0.541016 4.875 5.27832 0.137695 10.9897 0.137695C16.7114 0.137695 21.459 4.875 21.459 10.5967C21.459 16.3081 16.7217 21.0557 11 21.0557ZM4.86816 3.95215C5.39111 4.32129 6.02686 4.62891 6.75488 4.86475C7.20605 3.61377 7.81104 2.59863 8.51855 1.88086C7.14453 2.28076 5.89355 2.99854 4.86816 3.95215ZM13.4917 1.89111C14.189 2.60889 14.7939 3.62402 15.2451 4.86475C15.9731 4.62891 16.6089 4.33154 17.1318 3.9624C16.0962 3.00879 14.8555 2.29102 13.4917 1.89111ZM8.07764 5.20312C8.7749 5.32617 9.52344 5.4082 10.3335 5.43896V2.1167C9.45166 2.50635 8.65186 3.63428 8.07764 5.20312ZM11.6768 2.1167V5.43896C12.4766 5.4082 13.2251 5.32617 13.9224 5.20312C13.3481 3.63428 12.5483 2.50635 11.6768 2.1167ZM1.95605 9.91992H5.83203C5.8833 8.5459 6.06787 7.26416 6.36523 6.11572C5.41162 5.80811 4.59131 5.4082 3.95557 4.92627C2.82764 6.3208 2.09961 8.05371 1.95605 9.91992ZM16.168 9.91992H20.0439C19.9004 8.05371 19.1724 6.3208 18.0342 4.93652C17.4087 5.4082 16.5884 5.80811 15.6348 6.11572C15.9321 7.26416 16.1167 8.5459 16.168 9.91992ZM11.6768 9.91992H14.7939C14.7427 8.68945 14.5786 7.52051 14.312 6.46436C13.4814 6.63867 12.5996 6.75146 11.6768 6.78223V9.91992ZM7.20605 9.91992H10.3335V6.78223C9.40039 6.75146 8.51855 6.63867 7.68799 6.46436C7.43164 7.52051 7.25732 8.68945 7.20605 9.91992ZM1.95605 11.2632C2.09961 13.1499 2.83789 14.8931 3.98633 16.2979C4.61182 15.8262 5.42188 15.4263 6.36523 15.1187C6.06787 13.96 5.8833 12.668 5.83203 11.2632H1.95605ZM7.20605 11.2632C7.24707 12.5142 7.43164 13.7036 7.7085 14.77C8.52881 14.606 9.41064 14.4932 10.3335 14.4624V11.2632H7.20605ZM11.6768 14.4624C12.5894 14.4932 13.4814 14.606 14.2915 14.77C14.5684 13.7036 14.7529 12.5142 14.7939 11.2632H11.6768V14.4624ZM15.6348 15.1187C16.5781 15.4263 17.3882 15.8262 18.0137 16.2979C19.1621 14.8931 19.9004 13.1499 20.0439 11.2632H16.168C16.1167 12.668 15.9321 13.96 15.6348 15.1187ZM11.6768 15.8057V19.0869C12.5381 18.6973 13.3276 17.5693 13.9019 16.0415C13.2148 15.9082 12.4663 15.8364 11.6768 15.8057ZM8.09814 16.0415C8.67236 17.5693 9.46191 18.6973 10.3335 19.0869V15.8057C9.53369 15.8364 8.78516 15.9082 8.09814 16.0415ZM15.2349 16.3696C14.7837 17.5898 14.189 18.5947 13.502 19.3022C14.8555 18.9023 16.0757 18.1948 17.1011 17.2617C16.5781 16.9028 15.9526 16.6055 15.2349 16.3696ZM4.89893 17.2617C5.92432 18.1948 7.15479 18.9023 8.5083 19.3022C7.81104 18.5947 7.21631 17.5898 6.76514 16.3696C6.04736 16.6055 5.42188 16.9028 4.89893 17.2617Z" fill="#F0E2C7"/>
</svg>
