<svg width="32" height="32" viewBox="0 0 32 32" fill="none" xmlns="http://www.w3.org/2000/svg">
<path d="M16 26.0557C10.2886 26.0557 5.54102 21.3081 5.54102 15.5967C5.54102 9.875 10.2783 5.1377 15.9897 5.1377C21.7114 5.1377 26.459 9.875 26.459 15.5967C26.459 21.3081 21.7217 26.0557 16 26.0557ZM14.8516 20.6108C15.2002 20.6108 15.4976 20.4468 15.7129 20.1084L20.5322 12.5205C20.6553 12.3052 20.7886 12.0693 20.7886 11.8438C20.7886 11.3618 20.3682 11.0542 19.917 11.0542C19.6504 11.0542 19.3838 11.2183 19.189 11.5259L14.8105 18.5601L12.729 15.8735C12.4727 15.5352 12.2471 15.4429 11.9497 15.4429C11.4883 15.4429 11.1294 15.8223 11.1294 16.2837C11.1294 16.5195 11.2217 16.7451 11.3755 16.9502L13.9492 20.1084C14.2158 20.4673 14.5029 20.6108 14.8516 20.6108Z" fill="#D52534"/>
<path d="M16 26.0557C10.2886 26.0557 5.54102 21.3081 5.54102 15.5967C5.54102 9.875 10.2783 5.1377 15.9897 5.1377C21.7114 5.1377 26.459 9.875 26.459 15.5967C26.459 21.3081 21.7217 26.0557 16 26.0557ZM14.8516 20.6108C15.2002 20.6108 15.4976 20.4468 15.7129 20.1084L20.5322 12.5205C20.6553 12.3052 20.7886 12.0693 20.7886 11.8438C20.7886 11.3618 20.3682 11.0542 19.917 11.0542C19.6504 11.0542 19.3838 11.2183 19.189 11.5259L14.8105 18.5601L12.729 15.8735C12.4727 15.5352 12.2471 15.4429 11.9497 15.4429C11.4883 15.4429 11.1294 15.8223 11.1294 16.2837C11.1294 16.5195 11.2217 16.7451 11.3755 16.9502L13.9492 20.1084C14.2158 20.4673 14.5029 20.6108 14.8516 20.6108Z" fill="#D52534"/>
</svg>
