<svg width="24" height="20" viewBox="0 0 24 20" fill="none" xmlns="http://www.w3.org/2000/svg">
<path d="M19.5264 7.95117C19.0034 7.95117 18.7061 7.67432 18.7061 7.13086V7.00781C18.7061 6.00293 19.2598 5.45947 19.9878 4.94678C20.8901 4.32129 21.3208 3.98291 21.3208 3.28564C21.3208 2.50635 20.7158 1.97314 19.7827 1.97314C19.0957 1.97314 18.5625 2.31152 18.2036 2.9165L18.019 3.1626C17.8345 3.40869 17.6089 3.57275 17.2603 3.57275C16.9219 3.57275 16.563 3.32666 16.563 2.86523C16.563 2.69092 16.5938 2.52686 16.645 2.35254C16.9219 1.41943 18.0806 0.578613 19.8442 0.578613C21.5874 0.578613 23.105 1.50146 23.105 3.20361C23.105 4.42383 22.3975 5.02881 21.4028 5.68506C20.6851 6.15674 20.3467 6.51562 20.3467 7.08984V7.21289C20.3467 7.62305 20.0391 7.95117 19.5264 7.95117ZM9.52881 10.3198C7.32422 10.3198 5.42725 8.35107 5.42725 5.80811C5.42725 3.2959 7.33447 1.37842 9.52881 1.37842C11.7231 1.37842 13.6304 3.25488 13.6304 5.7876C13.6304 8.35107 11.7231 10.3198 9.52881 10.3198ZM19.5059 11.0068C18.9111 11.0068 18.3984 10.5249 18.3984 9.94043C18.3984 9.35596 18.9009 8.87402 19.5059 8.87402C20.1006 8.87402 20.6133 9.3457 20.6133 9.94043C20.6133 10.5352 20.0903 11.0068 19.5059 11.0068ZM2.64844 19.8149C1.55127 19.8149 0.89502 19.3022 0.89502 18.4512C0.89502 15.8057 4.20703 12.1553 9.51855 12.1553C14.8403 12.1553 18.1523 15.8057 18.1523 18.4512C18.1523 19.3022 17.4961 19.8149 16.3989 19.8149H2.64844Z" fill="#F0E2C7"/>
</svg>
