<svg width="32" height="32" viewBox="0 0 32 32" fill="none" xmlns="http://www.w3.org/2000/svg">
<path d="M9.52979 5.77344C9.59131 4.90186 10.0835 4.45068 11.0269 4.45068H20.9629C21.9165 4.45068 22.4087 4.90186 22.4702 5.77344H9.52979ZM7.41748 8.61377C7.57129 7.68066 8.01221 7.16797 9.0376 7.16797H22.9624C23.9878 7.16797 24.4287 7.68066 24.5825 8.61377H7.41748ZM8.57617 26.7427C6.49463 26.7427 5.45898 25.6968 5.45898 23.6562V13.3408C5.45898 11.3003 6.49463 10.2646 8.57617 10.2646H23.4136C25.4746 10.2646 26.5308 11.3003 26.5308 13.3408V23.6562C26.5308 25.6968 25.4746 26.7427 23.4136 26.7427H8.57617Z" fill="#F0E2C7"/>
</svg>
