<svg width="32" height="32" viewBox="0 0 32 32" fill="none" xmlns="http://www.w3.org/2000/svg">
<path d="M6.47412 15.5967C6.47412 15.3403 6.58691 15.1045 6.79199 14.9097L13.5801 8.13184C13.8057 7.90625 14.021 7.82422 14.2671 7.82422C14.7695 7.82422 15.1694 8.19336 15.1694 8.70605C15.1694 8.95215 15.0771 9.18799 14.9131 9.35205L12.6162 11.6899L9.1709 14.8379L11.6421 14.6841H24.6133C25.1465 14.6841 25.5156 15.0635 25.5156 15.5967C25.5156 16.1299 25.1465 16.5093 24.6133 16.5093H11.6421L9.16064 16.3555L12.6162 19.5034L14.9131 21.8413C15.0771 21.9951 15.1694 22.2412 15.1694 22.4873C15.1694 23 14.7695 23.3691 14.2671 23.3691C14.021 23.3691 13.8057 23.2769 13.6006 23.082L6.79199 16.2837C6.58691 16.0889 6.47412 15.853 6.47412 15.5967Z" fill="#FFE1CC"/>
</svg>
