<svg width="20" height="24" viewBox="0 0 20 24" fill="none" xmlns="http://www.w3.org/2000/svg">
<path d="M9.98975 7.83887C9.54883 7.83887 9.17969 7.46973 9.17969 7.03906V4.05518L9.24121 2.51709L8.54395 3.24512L6.99561 4.90625C6.85205 5.07031 6.62646 5.15234 6.43164 5.15234C6.00098 5.15234 5.69336 4.84473 5.69336 4.42432C5.69336 4.20898 5.77539 4.04492 5.9292 3.89111L9.39502 0.54834C9.61035 0.343262 9.78467 0.271484 9.98975 0.271484C10.2051 0.271484 10.3794 0.343262 10.5845 0.54834L14.0503 3.89111C14.2041 4.04492 14.2964 4.20898 14.2964 4.42432C14.2964 4.84473 13.9683 5.15234 13.5479 5.15234C13.3428 5.15234 13.1377 5.07031 12.9941 4.90625L11.4355 3.24512L10.7485 2.51709L10.8101 4.05518V7.03906C10.8101 7.46973 10.4307 7.83887 9.98975 7.83887ZM4.11426 23.4146C1.97119 23.4146 0.894531 22.3481 0.894531 20.2358V10.2075C0.894531 8.09521 1.97119 7.02881 4.11426 7.02881H8.97461V14.6167C8.97461 15.1602 9.43604 15.6113 9.98975 15.6113C10.5435 15.6113 11.0151 15.1602 11.0151 14.6167V7.02881H15.8755C18.0186 7.02881 19.0952 8.09521 19.0952 10.2075V20.2358C19.0952 22.3481 18.0186 23.4146 15.8755 23.4146H4.11426Z" fill="#F0E2C7"/>
</svg>
