<svg width="32" height="32" viewBox="0 0 32 32" fill="none" xmlns="http://www.w3.org/2000/svg">
<path d="M16 26.0557C10.2886 26.0557 5.54102 21.3081 5.54102 15.5967C5.54102 9.875 10.2783 5.1377 15.9897 5.1377C21.7114 5.1377 26.459 9.875 26.459 15.5967C26.459 21.3081 21.7217 26.0557 16 26.0557ZM9.37598 14.6328V15.2891C9.37598 15.6685 9.69385 15.9863 10.0732 15.9863C10.4834 15.9863 10.791 15.6685 10.791 15.2891V14.7046C10.791 13.7202 11.4883 13.0742 12.5137 13.0742H16.6665V14.3765C16.6665 14.7456 16.8921 14.9609 17.2407 14.9609C17.3843 14.9609 17.5586 14.9097 17.6816 14.8071L20.0708 12.8179C20.3682 12.5718 20.3682 12.1924 20.0708 11.9463L17.6816 9.94678C17.5586 9.84424 17.3843 9.78271 17.2407 9.78271C16.8921 9.78271 16.6665 10.0083 16.6665 10.3569V11.6694H12.6265C10.6577 11.6694 9.37598 12.8384 9.37598 14.6328ZM22.6343 16.5913V15.9453C22.6343 15.5454 22.3369 15.248 21.937 15.248C21.5166 15.248 21.2192 15.5454 21.2192 15.9453V16.5195C21.2192 17.5142 20.522 18.1602 19.4966 18.1602H15.3438V16.8579C15.3438 16.499 15.1284 16.2837 14.7695 16.2837C14.626 16.2837 14.4517 16.3452 14.3389 16.4375L11.9395 18.4165C11.6421 18.6626 11.6421 19.0522 11.9395 19.2983L14.3389 21.2979C14.4619 21.4004 14.626 21.4619 14.7695 21.4619C15.1284 21.4619 15.3438 21.2363 15.3438 20.8774V19.5649H19.3838C21.3525 19.5649 22.6343 18.396 22.6343 16.5913Z" fill="#F0E2C7"/>
</svg>
