<svg width="32" height="32" viewBox="0 0 32 32" fill="none" xmlns="http://www.w3.org/2000/svg">
<path d="M16 26.0557C10.2886 26.0557 5.54102 21.3081 5.54102 15.5967C5.54102 9.875 10.2783 5.1377 15.9897 5.1377C21.7114 5.1377 26.459 9.875 26.459 15.5967C26.459 21.3081 21.7217 26.0557 16 26.0557Z" fill="white"/>
<path d="M16 26.0659C10.2886 26.0659 5.54102 21.3286 5.54102 15.6069C5.54102 9.89551 10.2783 5.14795 15.9897 5.14795C21.7114 5.14795 26.459 9.89551 26.459 15.6069C26.459 21.3286 21.7217 26.0659 16 26.0659ZM21.127 11.4131L21.5679 10.9209C21.8037 10.6851 21.7935 10.3774 21.5884 10.1724L21.4551 10.0391C21.2397 9.82373 20.9014 9.82373 20.6758 10.0596L20.2144 10.5107L21.127 11.4131ZM12.7495 20.6519H19.0249C20.04 20.6519 20.6553 20.0469 20.6553 18.8882V13.3818L19.5581 14.479V18.8267C19.5581 19.3188 19.3223 19.5444 19.0146 19.5444H12.77C12.3086 19.5444 12.0728 19.3188 12.0728 18.8267V12.7769C12.0728 12.2847 12.3086 12.0591 12.77 12.0591H17.1792L18.2866 10.9517H12.7495C11.5806 10.9517 10.9653 11.5669 10.9653 12.7256V18.8882C10.9653 20.0469 11.5806 20.6519 12.7495 20.6519ZM14.749 17.1758L15.8154 16.7349L20.6758 11.8745L19.7529 10.9824L14.9131 15.8325L14.4209 16.8477C14.3286 17.0527 14.5439 17.2578 14.749 17.1758Z" fill="#111214"/>
</svg>
