<svg width="32" height="32" viewBox="0 0 32 32" fill="none" xmlns="http://www.w3.org/2000/svg">
<path d="M11.3037 26.1069C9.81689 26.1069 8.85303 25.1636 8.78125 23.6973L8.06348 8.77783H6.84326C6.43311 8.77783 6.07422 8.4292 6.07422 7.99854C6.07422 7.57812 6.43311 7.22949 6.84326 7.22949H11.4985V5.66064C11.4985 4.17383 12.4624 3.27148 14.0415 3.27148H17.938C19.5171 3.27148 20.481 4.17383 20.481 5.66064V7.22949H25.167C25.5874 7.22949 25.9258 7.57812 25.9258 7.99854C25.9258 8.41895 25.5874 8.77783 25.167 8.77783H23.9365L23.229 23.687C23.1572 25.1533 22.1729 26.1069 20.7065 26.1069H11.3037ZM13.1289 5.76318V7.22949H18.8506V5.76318C18.8506 5.17871 18.4404 4.79932 17.8252 4.79932H14.1543C13.5391 4.79932 13.1289 5.17871 13.1289 5.76318ZM12.8726 22.9897C13.2725 22.9897 13.5391 22.7437 13.5288 22.3643L13.2007 11.0645C13.1904 10.6851 12.9238 10.4492 12.5444 10.4492C12.1343 10.4492 11.8779 10.6953 11.8882 11.0747L12.1958 22.3643C12.2163 22.7539 12.4727 22.9897 12.8726 22.9897ZM16 22.9897C16.3999 22.9897 16.687 22.7437 16.687 22.3643V11.0747C16.687 10.6953 16.3999 10.4492 16 10.4492C15.6001 10.4492 15.3232 10.6953 15.3232 11.0747V22.3643C15.3232 22.7437 15.6001 22.9897 16 22.9897ZM19.1377 22.9897C19.5273 22.9897 19.7837 22.7539 19.8042 22.3643L20.1118 11.0747C20.1221 10.6953 19.8657 10.4492 19.4556 10.4492C19.0762 10.4492 18.8096 10.6851 18.7993 11.0747L18.4814 22.3643C18.4712 22.7437 18.7378 22.9897 19.1377 22.9897Z" fill="#D52534"/>
</svg>
