<svg width="32" height="32" viewBox="0 0 32 32" fill="none" xmlns="http://www.w3.org/2000/svg">
<path d="M25.5156 15.5967C25.5156 15.853 25.4131 16.0889 25.208 16.2837L18.3892 23.082C18.1841 23.2769 17.9688 23.3691 17.7227 23.3691C17.2202 23.3691 16.8306 23 16.8306 22.4873C16.8306 22.2412 16.9126 21.9951 17.0767 21.8413L19.3735 19.5034L22.8291 16.3555L20.3477 16.5093H7.37646C6.84326 16.5093 6.47412 16.1299 6.47412 15.5967C6.47412 15.0635 6.84326 14.6841 7.37646 14.6841H20.3477L22.8188 14.8379L19.3735 11.6899L17.0767 9.35205C16.9126 9.18799 16.8306 8.95215 16.8306 8.70605C16.8306 8.19336 17.2202 7.82422 17.7227 7.82422C17.9688 7.82422 18.1841 7.90625 18.4097 8.13184L25.208 14.9097C25.4131 15.1045 25.5156 15.3403 25.5156 15.5967Z" fill="#FFE1CC"/>
</svg>
