<svg width="32" height="32" viewBox="0 0 32 32" fill="none" xmlns="http://www.w3.org/2000/svg">
<path d="M10.5552 26.5889C8.43262 26.5889 7.37646 25.5225 7.37646 23.3794V7.82422C7.37646 5.69141 8.44287 4.60449 10.5552 4.60449H15.4258C16.5742 4.60449 17.2202 4.77881 17.9995 5.57861L23.6494 11.3311C24.4697 12.1719 24.6235 12.7461 24.6235 14.0688V23.3794C24.6235 25.5122 23.5674 26.5889 21.4448 26.5889H10.5552ZM10.627 24.938H21.3628C22.4292 24.938 22.9727 24.374 22.9727 23.3486V14.1406H17.1279C15.8462 14.1406 15.2002 13.5049 15.2002 12.2129V6.25537H10.6372C9.5708 6.25537 9.02734 6.83984 9.02734 7.85498V23.3486C9.02734 24.374 9.5708 24.938 10.627 24.938ZM17.3125 12.5923H22.6548L16.7485 6.57324V12.0181C16.7485 12.4282 16.9023 12.5923 17.3125 12.5923ZM19.7734 16.9707C20.1323 16.9707 20.3989 17.2476 20.3989 17.5962C20.3989 17.9551 20.1323 18.2319 19.7734 18.2319H11.9907C11.6216 18.2319 11.3447 17.9551 11.3447 17.5962C11.3447 17.2476 11.6216 16.9707 11.9907 16.9707H19.7734ZM19.7734 20.5493C20.1323 20.5493 20.3989 20.8364 20.3989 21.1953C20.3989 21.5439 20.1323 21.8105 19.7734 21.8105H11.9907C11.6216 21.8105 11.3447 21.5439 11.3447 21.1953C11.3447 20.8364 11.6216 20.5493 11.9907 20.5493H19.7734Z" fill="#FFE1CC"/>
</svg>
