<svg width="24" height="22" viewBox="0 0 24 22" fill="none" xmlns="http://www.w3.org/2000/svg">
<path d="M6.79102 21.9272C6.20654 21.9272 5.87842 21.5068 5.87842 20.8711V17.8872H5.39648C2.34082 17.8872 0.700195 16.2158 0.700195 13.2012V5.34668C0.700195 2.33203 2.34082 0.650391 5.39648 0.650391H18.6035C21.6592 0.650391 23.2998 2.34229 23.2998 5.34668V13.2012C23.2998 16.2056 21.6592 17.8872 18.6035 17.8872H11.6719L7.97021 21.271C7.48828 21.7222 7.19092 21.9272 6.79102 21.9272ZM9.75439 13.2627L12.0103 11.6118L14.2559 13.2627C14.707 13.5908 15.2197 13.2935 15.0249 12.709L14.1431 10.0635L16.4399 8.4126C16.9116 8.07422 16.7065 7.53076 16.1733 7.53076H13.3228L12.4819 4.90576C12.3179 4.38281 11.7129 4.38281 11.5386 4.90576L10.6875 7.53076H7.83691C7.30371 7.53076 7.09863 8.07422 7.57031 8.4126L9.8877 10.0635L8.99561 12.709C8.79053 13.2935 9.31348 13.5908 9.75439 13.2627Z" fill="#F0E2C7"/>
</svg>
