<svg width="32" height="32" viewBox="0 0 32 32" fill="none" xmlns="http://www.w3.org/2000/svg">
<path d="M16 24.3228C7.88916 24.3228 2.0957 17.6782 2.0957 15.6069C2.0957 13.5254 7.88916 6.89111 16 6.89111C24.2031 6.89111 29.894 13.5254 29.894 15.6069C29.894 17.6782 24.2134 24.3228 16 24.3228ZM16 21.3184C19.1685 21.3184 21.7319 18.7241 21.7319 15.6069C21.7319 12.4077 19.1685 9.89551 16 9.89551C12.8008 9.89551 10.2578 12.4077 10.2578 15.6069C10.2578 18.7241 12.8008 21.3184 16 21.3184ZM16 17.668C14.8516 17.668 13.9082 16.7349 13.9082 15.6069C13.9082 14.4688 14.8516 13.5356 16 13.5356C17.1382 13.5356 18.0815 14.4688 18.0815 15.6069C18.0815 16.7349 17.1382 17.668 16 17.668Z" fill="#F0E2C7"/>
</svg>
