<svg width="32" height="32" viewBox="0 0 32 32" fill="none" xmlns="http://www.w3.org/2000/svg">
<path d="M6.73047 23.8203V8.55225C6.73047 6.69629 7.82764 5.75293 9.48877 5.65039C13.1699 5.43506 16.2256 4.92236 19.0967 4.27637C21.0654 3.81494 22.1523 4.80957 22.1523 6.8501V21.8618C22.1523 23.6562 21.5884 24.4253 20.1323 24.8354C16.2256 25.9121 13.1699 26.23 9.73486 26.4146C7.82764 26.5273 6.73047 25.6045 6.73047 23.8203ZM14.9233 27.3477C16.646 27.0811 18.502 26.7222 20.522 26.1787C22.5933 25.584 23.5571 24.251 23.5571 21.8618V6.8501C23.5571 6.54248 23.5366 6.24512 23.5059 5.97852C24.6748 6.31689 25.2695 7.30127 25.2695 8.89062V24.1382C25.2695 26.2812 24.2134 27.3477 22.1011 27.3477H14.9233ZM10.5142 10.7876C13.5186 10.5928 15.918 10.1826 18.3789 9.62891C18.8608 9.52637 18.9839 9.28027 18.9839 8.98291C18.9839 8.65479 18.7275 8.36768 18.2661 8.47021C15.918 8.98291 13.5186 9.40332 10.5142 9.59814C10.0938 9.62891 9.90918 9.88525 9.90918 10.2134C9.90918 10.5518 10.1553 10.8081 10.5142 10.7876ZM10.5142 14.1919C13.5186 13.9971 15.918 13.5767 18.3789 13.0332C18.8608 12.9307 18.9839 12.6846 18.9839 12.3872C18.9839 12.0591 18.7275 11.772 18.2661 11.8643C15.918 12.3872 13.5186 12.8076 10.5142 13.0024C10.0938 13.0332 9.90918 13.2896 9.90918 13.6074C9.90918 13.9458 10.1553 14.2124 10.5142 14.1919ZM10.5142 17.5962C13.5186 17.4014 15.918 16.981 18.3789 16.4375C18.8608 16.335 18.9839 16.0889 18.9839 15.7915C18.9839 15.4634 18.7275 15.1763 18.2661 15.2686C15.918 15.7915 13.5186 16.2119 10.5142 16.4067C10.0938 16.4375 9.90918 16.6938 9.90918 17.0117C9.90918 17.3501 10.1553 17.6167 10.5142 17.5962ZM10.5142 20.9902C12.2471 20.8877 13.4058 20.7236 14.5542 20.5391C14.9028 20.4775 15.0874 20.2007 15.0874 19.9238C15.0874 19.606 14.8311 19.2983 14.3594 19.3804C13.3442 19.5444 12.2163 19.6982 10.5142 19.7905C10.0938 19.8315 9.90918 20.0776 9.90918 20.4058C9.90918 20.7441 10.1553 21.0107 10.5142 20.9902Z" fill="#F0E2C7"/>
</svg>
