<svg width="32" height="32" viewBox="0 0 32 32" fill="none" xmlns="http://www.w3.org/2000/svg">
<path d="M8.13525 23.4717C7.77637 23.123 7.78662 22.5283 8.13525 22.1797L14.6978 15.6069L8.13525 9.04443C7.78662 8.6958 7.78662 8.11133 8.13525 7.75244C8.48389 7.3833 9.08887 7.39355 9.4375 7.75244L16 14.3149L22.5625 7.75244C22.9111 7.39355 23.5059 7.39355 23.8647 7.75244C24.2236 8.10107 24.2134 8.6958 23.8647 9.04443L17.3022 15.6069L23.8647 22.1797C24.2134 22.5283 24.2134 23.1128 23.8647 23.4717C23.5161 23.8306 22.9111 23.8203 22.5625 23.4717L16 16.9092L9.4375 23.4717C9.08887 23.8203 8.49414 23.8203 8.13525 23.4717Z" fill="#D52534"/>
</svg>
