<svg width="32" height="32" viewBox="0 0 32 32" fill="none" xmlns="http://www.w3.org/2000/svg">
<path d="M10.791 26.9272C10.2065 26.9272 9.87842 26.5068 9.87842 25.8711V22.8872H9.39648C6.34082 22.8872 4.7002 21.2158 4.7002 18.2012V10.3467C4.7002 7.33203 6.34082 5.65039 9.39648 5.65039H22.6035C25.6592 5.65039 27.2998 7.34229 27.2998 10.3467V18.2012C27.2998 21.2056 25.6592 22.8872 22.6035 22.8872H15.6719L11.9702 26.271C11.4883 26.7222 11.1909 26.9272 10.791 26.9272ZM15.918 10.9004C16.6357 10.9004 17.1997 10.3262 17.1997 9.6084C17.1997 8.89062 16.6357 8.31641 15.918 8.31641C15.2104 8.31641 14.6362 8.89062 14.6362 9.6084C14.6362 10.3262 15.2104 10.9004 15.918 10.9004ZM14.2979 19.77H18.2764C18.6865 19.77 18.9941 19.4727 18.9941 19.0625C18.9941 18.6831 18.6865 18.3755 18.2764 18.3755H17.0664V13.4023C17.0664 12.8794 16.7998 12.5205 16.3076 12.5205H14.4619C14.062 12.5205 13.7441 12.8281 13.7441 13.2075C13.7441 13.6177 14.062 13.9048 14.4619 13.9048H15.5078V18.3755H14.2979C13.8877 18.3755 13.5801 18.6831 13.5801 19.0625C13.5801 19.4727 13.8877 19.77 14.2979 19.77Z" fill="#F0E2C7"/>
</svg>
