<svg width="32" height="32" viewBox="0 0 32 32" fill="none" xmlns="http://www.w3.org/2000/svg">
<path d="M5.27441 13.6177H6.72021C7.66357 8.81885 11.9497 5.1377 16.9946 5.1377C22.7061 5.1377 27.4536 9.875 27.4536 15.5967C27.4536 21.3081 22.7061 26.0557 16.9946 26.0557C13.5391 26.0557 10.4834 24.292 8.53516 21.6772C8.18652 21.2261 8.29932 20.6621 8.70947 20.4058C9.14014 20.1494 9.62207 20.2827 9.93994 20.7031C11.5088 22.8872 14.0723 24.3022 16.9946 24.3125C21.8345 24.333 25.7104 20.4365 25.7104 15.5967C25.7104 10.7568 21.8345 6.89111 16.9946 6.89111C12.8315 6.89111 9.38623 9.7417 8.49414 13.6177H9.98096C10.709 13.6177 10.8936 14.1201 10.5039 14.6841L8.20703 17.9551C7.87891 18.4165 7.38672 18.4268 7.04834 17.9551L4.75146 14.6943C4.35156 14.1201 4.53613 13.6177 5.27441 13.6177ZM16.769 9.4751C17.3022 9.4751 17.7432 9.90576 17.7432 10.439V15.8735L20.1631 19.1548C20.522 19.6572 20.4912 20.2417 20.0298 20.5596C19.5273 20.8979 18.9736 20.8057 18.5635 20.2725L16.082 16.9912C15.877 16.7349 15.8052 16.499 15.8052 16.2529V10.439C15.8052 9.90576 16.2358 9.4751 16.769 9.4751Z" fill="#FFE1CC"/>
</svg>
