<svg width="32" height="32" viewBox="0 0 32 32" fill="none" xmlns="http://www.w3.org/2000/svg">
<path d="M16 26.0557C10.2886 26.0557 5.54102 21.3081 5.54102 15.5967C5.54102 9.875 10.2783 5.1377 15.9897 5.1377C21.7114 5.1377 26.459 9.875 26.459 15.5967C26.459 21.3081 21.7217 26.0557 16 26.0557Z" fill="white"/>
<path d="M16 26.0659C10.2886 26.0659 5.54102 21.3286 5.54102 15.6069C5.54102 9.89551 10.2783 5.14795 15.9897 5.14795C21.7114 5.14795 26.459 9.89551 26.459 15.6069C26.459 21.3286 21.7217 26.0659 16 26.0659ZM12.1855 19.8008C12.1855 20.5903 12.5342 20.9492 13.2622 20.9492H18.7378C19.4658 20.9492 19.8145 20.5903 19.8145 19.8008V15.5864C19.8145 14.8379 19.5068 14.479 18.8916 14.438V13.187C18.8916 11.2388 17.7227 9.93652 16 9.93652C14.2773 9.93652 13.1084 11.2388 13.1084 13.187V14.438C12.4932 14.479 12.1855 14.8379 12.1855 15.5864V19.8008ZM14.2158 14.4277V13.064C14.2158 11.8335 14.9336 11.0029 16 11.0029C17.0664 11.0029 17.7842 11.8335 17.7842 13.064V14.4277H14.2158Z" fill="#AA1C28"/>
</svg>
